<svg xmlns="http://www.w3.org/2000/svg" xmlns:xlink="http://www.w3.org/1999/xlink" viewBox="0 0 315.3 372.71"><defs><style>.cls-1{fill:none;}.cls-2{isolation:isolate;}.cls-3{clip-path:url(#clip-path);}.cls-4{fill:#e0f3ff;}.cls-5{fill:url(#Áåçûìÿííûé_ãðàäèåíò_74);}.cls-6,.cls-7{mix-blend-mode:screen;}.cls-15,.cls-17,.cls-32,.cls-33,.cls-34,.cls-35,.cls-36,.cls-37,.cls-38,.cls-39,.cls-40,.cls-42,.cls-44,.cls-45,.cls-46,.cls-47,.cls-48,.cls-50,.cls-51,.cls-52,.cls-53,.cls-6,.cls-7,.cls-74{opacity:0.5;}.cls-6{fill:url(#Áåçûìÿííûé_ãðàäèåíò_83);}.cls-7{fill:url(#Áåçûìÿííûé_ãðàäèåíò_83-2);}.cls-8{fill:url(#Áåçûìÿííûé_ãðàäèåíò_26);}.cls-9{fill:url(#Áåçûìÿííûé_ãðàäèåíò_26-2);}.cls-10,.cls-11,.cls-12,.cls-15,.cls-17,.cls-23,.cls-26,.cls-28,.cls-31,.cls-32,.cls-33,.cls-34,.cls-35,.cls-36,.cls-37,.cls-38,.cls-39,.cls-40,.cls-41,.cls-42,.cls-43,.cls-44,.cls-45,.cls-46,.cls-47,.cls-48,.cls-49,.cls-50,.cls-51,.cls-52,.cls-53,.cls-57,.cls-69,.cls-72,.cls-73,.cls-74,.cls-78,.cls-79{mix-blend-mode:multiply;}.cls-10,.cls-11,.cls-12,.cls-41{opacity:0.76;}.cls-10{fill:url(#Áåçûìÿííûé_ãðàäèåíò_70);}.cls-11{fill:url(#Áåçûìÿííûé_ãðàäèåíò_70-2);}.cls-12{fill:url(#Áåçûìÿííûé_ãðàäèåíò_70-3);}.cls-13{fill:#fe9083;}.cls-14{fill:url(#Áåçûìÿííûé_ãðàäèåíò_354);}.cls-15{fill:url(#Áåçûìÿííûé_ãðàäèåíò_70-4);}.cls-16{fill:url(#Áåçûìÿííûé_ãðàäèåíò_26-3);}.cls-17{fill:url(#Áåçûìÿííûé_ãðàäèåíò_70-5);}.cls-18{fill:url(#Áåçûìÿííûé_ãðàäèåíò_178);}.cls-19{fill:url(#Áåçûìÿííûé_ãðàäèåíò_55);}.cls-20{fill:#cb4d7a;}.cls-21{fill:#ee8183;}.cls-22{fill:url(#Áåçûìÿííûé_ãðàäèåíò_71);}.cls-23,.cls-28,.cls-57,.cls-69,.cls-72,.cls-73{opacity:0.6;}.cls-23{fill:url(#Áåçûìÿííûé_ãðàäèåíò_48);}.cls-24{fill:url(#Áåçûìÿííûé_ãðàäèåíò_71-2);}.cls-25{fill:#e28183;}.cls-26,.cls-31{opacity:0.91;}.cls-26{fill:url(#Áåçûìÿííûé_ãðàäèåíò_73);}.cls-27{fill:url(#Áåçûìÿííûé_ãðàäèåíò_71-3);}.cls-28{fill:url(#Áåçûìÿííûé_ãðàäèåíò_48-2);}.cls-29{fill:url(#Áåçûìÿííûé_ãðàäèåíò_64);}.cls-30{fill:url(#Áåçûìÿííûé_ãðàäèåíò_64-2);}.cls-31{fill:url(#Áåçûìÿííûé_ãðàäèåíò_73-2);}.cls-32{fill:url(#Áåçûìÿííûé_ãðàäèåíò_70-6);}.cls-33{fill:url(#Áåçûìÿííûé_ãðàäèåíò_70-7);}.cls-34{fill:url(#Áåçûìÿííûé_ãðàäèåíò_4);}.cls-35{fill:url(#Áåçûìÿííûé_ãðàäèåíò_4-2);}.cls-36{fill:url(#Áåçûìÿííûé_ãðàäèåíò_4-3);}.cls-37{fill:url(#Áåçûìÿííûé_ãðàäèåíò_4-4);}.cls-38{fill:url(#Áåçûìÿííûé_ãðàäèåíò_4-5);}.cls-39{fill:url(#Áåçûìÿííûé_ãðàäèåíò_4-6);}.cls-40{fill:url(#Áåçûìÿííûé_ãðàäèåíò_4-7);}.cls-41{fill:url(#Áåçûìÿííûé_ãðàäèåíò_70-8);}.cls-42{fill:url(#Áåçûìÿííûé_ãðàäèåíò_70-9);}.cls-43,.cls-49{opacity:0.3;}.cls-43{fill:url(#Áåçûìÿííûé_ãðàäèåíò_70-10);}.cls-44{fill:url(#Áåçûìÿííûé_ãðàäèåíò_4-8);}.cls-45{fill:url(#Áåçûìÿííûé_ãðàäèåíò_70-11);}.cls-46{fill:url(#Áåçûìÿííûé_ãðàäèåíò_4-9);}.cls-47{fill:url(#Áåçûìÿííûé_ãðàäèåíò_4-10);}.cls-48{fill:url(#Áåçûìÿííûé_ãðàäèåíò_70-12);}.cls-49{fill:url(#Áåçûìÿííûé_ãðàäèåíò_70-13);}.cls-50{fill:url(#Áåçûìÿííûé_ãðàäèåíò_70-14);}.cls-51{fill:url(#Áåçûìÿííûé_ãðàäèåíò_70-15);}.cls-52{fill:url(#Áåçûìÿííûé_ãðàäèåíò_70-16);}.cls-53{fill:#7a4ac0;}.cls-54{fill:url(#Áåçûìÿííûé_ãðàäèåíò_71-4);}.cls-55{fill:url(#Áåçûìÿííûé_ãðàäèåíò_71-5);}.cls-56{fill:url(#Áåçûìÿííûé_ãðàäèåíò_387);}.cls-57{fill:url(#Áåçûìÿííûé_ãðàäèåíò_48-3);}.cls-58{fill:#38368e;}.cls-59{fill:url(#Áåçûìÿííûé_ãðàäèåíò_59);}.cls-60{fill:url(#Áåçûìÿííûé_ãðàäèåíò_184);}.cls-61{fill:#ffebed;}.cls-62{fill:#7f9ec9;}.cls-63{fill:#131163;}.cls-64{fill:#fff;}.cls-65{fill:#c6659c;}.cls-66{fill:#cb5f7d;}.cls-67{fill:#9f4a8b;}.cls-68{fill:#ffbcaf;}.cls-69{fill:url(#Áåçûìÿííûé_ãðàäèåíò_48-4);}.cls-70{fill:url(#Áåçûìÿííûé_ãðàäèåíò_292);}.cls-71{fill:#d2726c;}.cls-72{fill:url(#Áåçûìÿííûé_ãðàäèåíò_35);}.cls-73{fill:url(#Áåçûìÿííûé_ãðàäèåíò_52);}.cls-74{fill:url(#Áåçûìÿííûé_ãðàäèåíò_397);}.cls-75{fill:url(#Áåçûìÿííûé_ãðàäèåíò_141);}.cls-76{fill:url(#Áåçûìÿííûé_ãðàäèåíò_141-2);}.cls-77{fill:url(#Áåçûìÿííûé_ãðàäèåíò_141-3);}.cls-78,.cls-79{opacity:0.8;}.cls-78{fill:url(#Áåçûìÿííûé_ãðàäèåíò_285);}.cls-79{fill:url(#Áåçûìÿííûé_ãðàäèåíò_285-2);}.cls-80{fill:#34c7ff;}.cls-81{fill:url(#Áåçûìÿííûé_ãðàäèåíò_141-4);}.cls-82{fill:url(#Áåçûìÿííûé_ãðàäèåíò_141-5);}.cls-83{fill:url(#Áåçûìÿííûé_ãðàäèåíò_141-6);}</style><clipPath id="clip-path" transform="translate(-114.03 -40.51)"><rect class="cls-1" width="600" height="400"/></clipPath><linearGradient id="Áåçûìÿííûé_ãðàäèåíò_74" x1="280.3" y1="400" x2="280.3" y2="310.79" gradientUnits="userSpaceOnUse"><stop offset="0" stop-color="#6456c0"/><stop offset="1" stop-color="#5f2c95"/></linearGradient><radialGradient id="Áåçûìÿííûé_ãðàäèåíò_83" cx="232.5" cy="368.65" r="27.03" gradientTransform="matrix(0, 0.66, -1.71, 0, 868.53, 213.73)" gradientUnits="userSpaceOnUse"><stop offset="0" stop-color="#4b474b"/><stop offset="1"/></radialGradient><radialGradient id="Áåçûìÿííûé_ãðàäèåíò_83-2" cx="351.33" cy="352.81" r="27.03" gradientTransform="matrix(0.66, 0, 0, 1.71, 87.07, -237.04)" xlink:href="#Áåçûìÿííûé_ãðàäèåíò_83"/><linearGradient id="Áåçûìÿííûé_ãðàäèåíò_26" x1="251.43" y1="368.68" x2="274.82" y2="368.68" gradientUnits="userSpaceOnUse"><stop offset="0" stop-color="#9e8cef"/><stop offset="1" stop-color="#caafee"/></linearGradient><linearGradient id="Áåçûìÿííûé_ãðàäèåíò_26-2" x1="341.53" y1="368.68" x2="364.93" y2="368.68" gradientTransform="matrix(-1, 0, 0, 1, 647.63, 0)" xlink:href="#Áåçûìÿííûé_ãðàäèåíò_26"/><linearGradient id="Áåçûìÿííûé_ãðàäèåíò_70" x1="277.16" y1="400" x2="277.16" y2="310.79" gradientUnits="userSpaceOnUse"><stop offset="0" stop-color="#ccf"/><stop offset="1" stop-color="#755cbb"/></linearGradient><linearGradient id="Áåçûìÿííûé_ãðàäèåíò_70-2" x1="173.51" y1="314.88" x2="173.51" y2="290.55" xlink:href="#Áåçûìÿííûé_ãðàäèåíò_70"/><linearGradient id="Áåçûìÿííûé_ãðàäèåíò_70-3" x1="145.33" y1="305.94" x2="145.33" y2="282.1" xlink:href="#Áåçûìÿííûé_ãðàäèåíò_70"/><linearGradient id="Áåçûìÿííûé_ãðàäèåíò_354" x1="283.54" y1="176.45" x2="283.54" y2="140.84" gradientUnits="userSpaceOnUse"><stop offset="0" stop-color="#d5cdf8"/><stop offset="1" stop-color="#f3edfb"/></linearGradient><linearGradient id="Áåçûìÿííûé_ãðàäèåíò_70-4" x1="265.21" y1="158.61" x2="301.87" y2="158.61" xlink:href="#Áåçûìÿííûé_ãðàäèåíò_70"/><linearGradient id="Áåçûìÿííûé_ãðàäèåíò_26-3" x1="273.06" y1="318.73" x2="273.06" y2="139.29" xlink:href="#Áåçûìÿííûé_ãðàäèåíò_26"/><linearGradient id="Áåçûìÿííûé_ãðàäèåíò_70-5" x1="198.59" y1="206.92" x2="242.29" y2="206.92" xlink:href="#Áåçûìÿííûé_ãðàäèåíò_70"/><linearGradient id="Áåçûìÿííûé_ãðàäèåíò_178" x1="197.24" y1="257.17" x2="197.24" y2="173.26" gradientUnits="userSpaceOnUse"><stop offset="0" stop-color="#9e8cef"/><stop offset="1" stop-color="#dac7f3"/></linearGradient><linearGradient id="Áåçûìÿííûé_ãðàäèåíò_55" x1="341.53" y1="232.99" x2="397.84" y2="232.99" gradientUnits="userSpaceOnUse"><stop offset="0" stop-color="#a999f1"/><stop offset="1" stop-color="#dac7f3"/></linearGradient><linearGradient id="Áåçûìÿííûé_ãðàäèåíò_71" x1="178.92" y1="161.82" x2="178.92" y2="139.69" gradientUnits="userSpaceOnUse"><stop offset="0.02" stop-color="#ffc2a9"/><stop offset="1" stop-color="#ff9595"/></linearGradient><linearGradient id="Áåçûìÿííûé_ãðàäèåíò_48" x1="192.86" y1="161.29" x2="192.86" y2="124.67" gradientUnits="userSpaceOnUse"><stop offset="0" stop-color="#ffeadb"/><stop offset="0.99" stop-color="#c27cb6"/></linearGradient><linearGradient id="Áåçûìÿííûé_ãðàäèåíò_71-2" x1="191.67" y1="186.21" x2="191.67" y2="129.75" xlink:href="#Áåçûìÿííûé_ãðàäèåíò_71"/><linearGradient id="Áåçûìÿííûé_ãðàäèåíò_73" x1="181.57" y1="177.4" x2="199.32" y2="177.4" gradientUnits="userSpaceOnUse"><stop offset="0.02" stop-color="#d1a1d6"/><stop offset="0.99" stop-color="#bd89c4"/></linearGradient><linearGradient id="Áåçûìÿííûé_ãðàäèåíò_71-3" x1="399" y1="220.6" x2="399" y2="145.1" xlink:href="#Áåçûìÿííûé_ãðàäèåíò_71"/><linearGradient id="Áåçûìÿííûé_ãðàäèåíò_48-2" x1="407.92" y1="196.41" x2="407.92" y2="158.9" xlink:href="#Áåçûìÿííûé_ãðàäèåíò_48"/><linearGradient id="Áåçûìÿííûé_ãðàäèåíò_64" x1="415.32" y1="183.46" x2="415.32" y2="166.65" gradientUnits="userSpaceOnUse"><stop offset="0" stop-color="#ffb0b0"/><stop offset="0.98" stop-color="#ffc2a9"/></linearGradient><linearGradient id="Áåçûìÿííûé_ãðàäèåíò_64-2" x1="425.07" y1="186.05" x2="425.07" y2="176.83" xlink:href="#Áåçûìÿííûé_ãðàäèåíò_64"/><linearGradient id="Áåçûìÿííûé_ãðàäèåíò_73-2" x1="385.63" y1="204.43" x2="402.78" y2="204.43" xlink:href="#Áåçûìÿííûé_ãðàäèåíò_73"/><linearGradient id="Áåçûìÿííûé_ãðàäèåíò_70-6" x1="361.76" y1="263.62" x2="361.76" y2="179.11" xlink:href="#Áåçûìÿííûé_ãðàäèåíò_70"/><linearGradient id="Áåçûìÿííûé_ãðàäèåíò_70-7" x1="175.69" y1="246.59" x2="317.04" y2="246.59" xlink:href="#Áåçûìÿííûé_ãðàäèåíò_70"/><linearGradient id="Áåçûìÿííûé_ãðàäèåíò_4" x1="300.31" y1="222.94" x2="327.32" y2="222.94" gradientUnits="userSpaceOnUse"><stop offset="0" stop-color="#ccedff"/><stop offset="1" stop-color="#755cbb"/></linearGradient><linearGradient id="Áåçûìÿííûé_ãðàäèåíò_4-2" x1="275.8" y1="270.36" x2="315.51" y2="270.36" xlink:href="#Áåçûìÿííûé_ãðàäèåíò_4"/><linearGradient id="Áåçûìÿííûé_ãðàäèåíò_4-3" x1="277.64" y1="288.31" x2="320.06" y2="288.31" xlink:href="#Áåçûìÿííûé_ãðàäèåíò_4"/><linearGradient id="Áåçûìÿííûé_ãðàäèåíò_4-4" x1="241.13" y1="243.86" x2="241.13" y2="196.25" xlink:href="#Áåçûìÿííûé_ãðàäèåíò_4"/><linearGradient id="Áåçûìÿííûé_ãðàäèåíò_4-5" x1="244.96" y1="247.86" x2="244.96" y2="211.77" xlink:href="#Áåçûìÿííûé_ãðàäèåíò_4"/><linearGradient id="Áåçûìÿííûé_ãðàäèåíò_4-6" x1="187.93" y1="201.73" x2="187.93" y2="174.46" xlink:href="#Áåçûìÿííûé_ãðàäèåíò_4"/><linearGradient id="Áåçûìÿííûé_ãðàäèåíò_4-7" x1="209.99" y1="177.72" x2="220.98" y2="177.72" xlink:href="#Áåçûìÿííûé_ãðàäèåíò_4"/><linearGradient id="Áåçûìÿííûé_ãðàäèåíò_70-8" x1="329.45" y1="243.86" x2="329.45" y2="193.32" xlink:href="#Áåçûìÿííûé_ãðàäèåíò_70"/><linearGradient id="Áåçûìÿííûé_ãðàäèåíò_70-9" x1="386.27" y1="232.99" x2="386.27" y2="206.58" xlink:href="#Áåçûìÿííûé_ãðàäèåíò_70"/><linearGradient id="Áåçûìÿííûé_ãðàäèåíò_70-10" x1="356.32" y1="231.81" x2="356.32" y2="211.62" xlink:href="#Áåçûìÿííûé_ãðàäèåíò_70"/><linearGradient id="Áåçûìÿííûé_ãðàäèåíò_4-8" x1="182.22" y1="203.47" x2="182.22" y2="195.97" xlink:href="#Áåçûìÿííûé_ãðàäèåíò_4"/><linearGradient id="Áåçûìÿííûé_ãðàäèåíò_70-11" x1="202.25" y1="226.33" x2="202.25" y2="185.35" xlink:href="#Áåçûìÿííûé_ãðàäèåíò_70"/><linearGradient id="Áåçûìÿííûé_ãðàäèåíò_4-9" x1="307.67" y1="197.48" x2="307.67" y2="166.65" xlink:href="#Áåçûìÿííûé_ãðàäèåíò_4"/><linearGradient id="Áåçûìÿííûé_ãðàäèåíò_4-10" x1="267.27" y1="193.32" x2="267.27" y2="150.76" xlink:href="#Áåçûìÿííûé_ãðàäèåíò_4"/><linearGradient id="Áåçûìÿííûé_ãðàäèåíò_70-12" x1="259.03" y1="160.08" x2="305.29" y2="160.08" xlink:href="#Áåçûìÿííûé_ãðàäèåíò_70"/><linearGradient id="Áåçûìÿííûé_ãðàäèåíò_70-13" x1="377.95" y1="229.98" x2="377.95" y2="203.21" xlink:href="#Áåçûìÿííûé_ãðàäèåíò_70"/><linearGradient id="Áåçûìÿííûé_ãðàäèåíò_70-14" x1="340.11" y1="260.18" x2="340.11" y2="179.11" xlink:href="#Áåçûìÿííûé_ãðàäèåíò_70"/><linearGradient id="Áåçûìÿííûé_ãðàäèåíò_70-15" x1="252.95" y1="298.26" x2="252.95" y2="275.02" xlink:href="#Áåçûìÿííûé_ãðàäèåíò_70"/><linearGradient id="Áåçûìÿííûé_ãðàäèåíò_70-16" x1="298.09" y1="291.88" x2="298.09" y2="280.59" xlink:href="#Áåçûìÿííûé_ãðàäèåíò_70"/><linearGradient id="Áåçûìÿííûé_ãðàäèåíò_71-4" x1="297.6" y1="146.81" x2="297.6" y2="69.6" xlink:href="#Áåçûìÿííûé_ãðàäèåíò_71"/><linearGradient id="Áåçûìÿííûé_ãðàäèåíò_71-5" x1="268.82" y1="115.66" x2="268.82" y2="92.89" xlink:href="#Áåçûìÿííûé_ãðàäèåíò_71"/><linearGradient id="Áåçûìÿííûé_ãðàäèåíò_387" x1="308.33" y1="124.27" x2="309.28" y2="119.3" gradientUnits="userSpaceOnUse"><stop offset="0" stop-color="#e1616a"/><stop offset="1" stop-color="#ff8883"/></linearGradient><linearGradient id="Áåçûìÿííûé_ãðàäèåíò_48-3" x1="299.71" y1="120.46" x2="299.71" y2="70.73" xlink:href="#Áåçûìÿííûé_ãðàäèåíò_48"/><linearGradient id="Áåçûìÿííûé_ãðàäèåíò_59" x1="297.29" y1="100.09" x2="297.29" y2="90.24" gradientUnits="userSpaceOnUse"><stop offset="0" stop-color="#cf6074"/><stop offset="1" stop-color="#f37270"/></linearGradient><linearGradient id="Áåçûìÿííûé_ãðàäèåíò_184" x1="316.94" y1="103.22" x2="316.94" y2="94.65" gradientUnits="userSpaceOnUse"><stop offset="0" stop-color="#cf6074"/><stop offset="1" stop-color="#ff817f"/></linearGradient><linearGradient id="Áåçûìÿííûé_ãðàäèåíò_48-4" x1="317.75" y1="108.21" x2="317.75" y2="88.92" xlink:href="#Áåçûìÿííûé_ãðàäèåíò_48"/><linearGradient id="Áåçûìÿííûé_ãðàäèåíò_292" x1="298.63" y1="147.78" x2="298.63" y2="54.15" gradientUnits="userSpaceOnUse"><stop offset="0" stop-color="#2e33a0"/><stop offset="1" stop-color="#0665a5"/></linearGradient><linearGradient id="Áåçûìÿííûé_ãðàäèåíò_35" x1="323.23" y1="88.82" x2="323.23" y2="67.22" gradientUnits="userSpaceOnUse"><stop offset="0" stop-color="#ffeadb"/><stop offset="0.99" stop-color="#8860c7"/></linearGradient><linearGradient id="Áåçûìÿííûé_ãðàäèåíò_52" x1="293.79" y1="147.78" x2="293.79" y2="54.15" gradientUnits="userSpaceOnUse"><stop offset="0" stop-color="#ccc2db"/><stop offset="0.99" stop-color="#8860c7"/></linearGradient><linearGradient id="Áåçûìÿííûé_ãðàäèåíò_397" x1="300.07" y1="147.76" x2="300.07" y2="143.74" gradientUnits="userSpaceOnUse"><stop offset="0" stop-color="#776d7e"/><stop offset="1" stop-color="#9d68c2"/></linearGradient><linearGradient id="Áåçûìÿííûé_ãðàäèåíò_141" x1="311.87" y1="60.87" x2="311.87" y2="57.88" gradientUnits="userSpaceOnUse"><stop offset="0" stop-color="#1f77d1"/><stop offset="1" stop-color="#0686c9"/></linearGradient><linearGradient id="Áåçûìÿííûé_ãðàäèåíò_141-2" x1="292.83" y1="70.71" x2="292.83" y2="61.87" xlink:href="#Áåçûìÿííûé_ãðàäèåíò_141"/><linearGradient id="Áåçûìÿííûé_ãðàäèåíò_141-3" x1="324.85" y1="75.19" x2="324.85" y2="67.22" xlink:href="#Áåçûìÿííûé_ãðàäèåíò_141"/><linearGradient id="Áåçûìÿííûé_ãðàäèåíò_285" x1="272.13" y1="110.26" x2="261.93" y2="97.77" gradientUnits="userSpaceOnUse"><stop offset="0" stop-color="#ffeadb"/><stop offset="0.99" stop-color="#b060f4"/></linearGradient><linearGradient id="Áåçûìÿííûé_ãðàäèåíò_285-2" x1="273.2" y1="108.65" x2="268.18" y2="102.51" xlink:href="#Áåçûìÿííûé_ãðàäèåíò_285"/><linearGradient id="Áåçûìÿííûé_ãðàäèåíò_141-4" x1="292.24" y1="71.5" x2="309.51" y2="71.5" xlink:href="#Áåçûìÿííûé_ãðàäèåíò_141"/><linearGradient id="Áåçûìÿííûé_ãðàäèåíò_141-5" x1="316.6" y1="123.14" x2="321.83" y2="123.14" xlink:href="#Áåçûìÿííûé_ãðàäèåíò_141"/><linearGradient id="Áåçûìÿííûé_ãðàäèåíò_141-6" x1="310.13" y1="119.24" x2="315.78" y2="119.24" xlink:href="#Áåçûìÿííûé_ãðàäèåíò_141"/></defs><g class="cls-2"><g id="illustration"><g class="cls-3"><circle class="cls-4" cx="269.05" cy="195.53" r="155.02" transform="translate(-173.49 207) rotate(-45)"/><path class="cls-5" d="M346.23,400h-47c-4.92-27.32-16.36-62.87-16.36-62.87-2.78-1.65-8.21.38-8.21.38L257.48,400H214.54c-2.28-38.56,18.82-82.33,18.82-82.33h0a4.73,4.73,0,0,1-.56-2.39,5.68,5.68,0,0,1,1.6-1.86c1.16-1.06,2.54-2.12,2.54-2.12l80.11-.5s.81.41,1.84,1h0c1.75,1.06,4.12,2.7,4.12,3.9a5.47,5.47,0,0,1-.81,3l0,.05C339.34,351.15,346.23,400,346.23,400Z" transform="translate(-114.03 -40.51)"/><ellipse class="cls-6" cx="236.86" cy="367.92" rx="46.31" ry="17.92" transform="translate(-288.92 475.49) rotate(-77.01)"/><ellipse class="cls-7" cx="320.06" cy="367.47" rx="17.92" ry="46.31" transform="translate(-201.31 59.48) rotate(-15.65)"/><path class="cls-8" d="M251.92,400l-.49-.08c5.46-32.2,19.34-59.21,19.47-59.48l.06-.07,3.54-3.09.32.38-3.49,3.06C270.7,342,257.27,368.51,251.92,400Z" transform="translate(-114.03 -40.51)"/><path class="cls-9" d="M305.61,400c-5.36-31.55-19.16-58.34-19.78-59.54l-3.13-2.8.34-.38,3.21,2.91c.15.27,14.39,27.53,19.85,59.73Z" transform="translate(-114.03 -40.51)"/><path class="cls-10" d="M323,315.72a5.47,5.47,0,0,1-.81,3l0,.05c-16.68,3.77-29.37,19.34-29.37,19.34C301.88,355.51,317,400,317,400H299.23c-4.92-27.32-16.36-62.87-16.36-62.87-2.78-1.65-8.21.38-8.21.38L257.48,400H246.36c4-26.18,15.73-58.14,15.73-58.14-11.55-13.45-28.73-24.19-28.73-24.19h0l-2-1.28,1.48-1.11c7.43,7.13,31.39,16.44,32.13,16.73l-30.53-18.59c1.16-1.06,2.54-2.12,2.54-2.12l80.11-.5s.81.41,1.84,1l-21.88,12Z" transform="translate(-114.03 -40.51)"/><polygon class="cls-11" points="168.84 296.62 178.19 290.55 175.97 296.62 174.34 314.88 168.84 296.62"/><polygon class="cls-12" points="160.63 297 150.89 291.49 130.03 282.1 156.59 299.65 158.17 305.94 160.63 297"/><path class="cls-13" d="M301.46,149.65c.06.43.11.66.11.66a57.27,57.27,0,0,1-1.66,5.66,46,46,0,0,1-6.23,12.12,23.85,23.85,0,0,1-2.72,3.18c-14.59-4.58-21.78-18.85-24.54-26a.36.36,0,0,1,0-.11c-.53-1.34-.88-2.42-1.1-3.12h0c-.17-.56-.25-.87-.25-.87l.18-.37,0-.05c.24-.5.48-1,.7-1.5a71.16,71.16,0,0,0,4-11.17c.71-2.62,1.09-4.64,1.27-5.71.09-.55.13-.85.13-.85l6.8,3.59,23.43,12.4a38.55,38.55,0,0,0-.5,5.94c0,1.25,0,2.37.09,3.32.07,1.16.19,2.08.28,2.68h0A.68.68,0,0,0,301.46,149.65Z" transform="translate(-114.03 -40.51)"/><path class="cls-14" d="M295,172.84a20.1,20.1,0,0,1-4.84,3.54l-.12.07-.14-.08h0c-.51-.31-2.25-1.38-4.59-3.14-6.12-4.61-16.34-13.93-19.26-26.49l0,0a31.14,31.14,0,0,1-.7-4.59h0c0-.41-.06-.82-.07-1.24a64.43,64.43,0,0,0,5.55,9.92c4.14,6.06,10.35,12.67,17.77,12.71,6.42,0,9.71-4.35,11.38-8.4a22.92,22.92,0,0,0,1.35-4.6,0,0,0,0,0,0,0c.07-.36.12-.68.17-.95h0c0-.14,0-.26.05-.37.06-.45.08-.71.08-.71S304,163.77,295,172.84Z" transform="translate(-114.03 -40.51)"/><path class="cls-15" d="M295,172.84a20.1,20.1,0,0,1-4.84,3.54h-.27c-.51-.31-2.25-1.38-4.59-3.14-6.12-4.61-16.34-13.93-19.26-26.49l0,0a31.14,31.14,0,0,1-.7-4.59h0c0-.41-.06-.82-.07-1.24a64.43,64.43,0,0,0,5.55,9.92s4,11.1,12.78,16.6c4.38,2.75,7.7,2.35,10.14.73a15.09,15.09,0,0,0,4.95-6.54,15.38,15.38,0,0,0,1.28-5.58q0-.5,0-.9a22.92,22.92,0,0,0,1.35-4.6,0,0,0,0,0,0,0c.07-.36.12-.68.17-.95h0c0-.14,0-.26.05-.37.06-.45.08-.71.08-.71S304,163.77,295,172.84Z" transform="translate(-114.03 -40.51)"/><path class="cls-16" d="M351.12,263.53l-.16.08c-.82.1-3.37-.46-6.71-3.35h0l0,0s0,0,0,0c-2.8-2.45-6.16-6.54-9.51-13.24-6.7-13.39-8.62-22.33-8.93-23.89l0-.24-3.91,6.2c-2.65,8-7.67,40.95-7.58,42.37s4.45,8.34,4.36,9.19v0c-.12.86-2.08,2.75-2.64,4.81-.38,1.37,2.28,5.69,4.15,8.92h0a13.13,13.13,0,0,1,1.72,3.58c0,1.51-4.74,8.9-4.74,8.9v4l-.07.07-.22.2-.18.15c-1.8,1.42-9.43,6.07-33.27,7.35-28.25,1.51-47.07-7.58-47.07-7.58l1.42-3.89s-1.32-1.13-1.42-1.7,1-1.9,1-1.9-2.84-1.51-2.84-3.41,5.69-7.76,5.5-12.79-4.55-9.47-5.12-12.31,7.39-9.85,7.39-9.85c-6.82-21.6-8.15-50.59-8.15-50.59L232.73,213s-8.15,18.57-15.54,27.66c-.88,1.08-1.81,2.15-2.77,3.18a81,81,0,0,1-6.36,6.15c-5.12,4.46-9.77,7.39-10.95,7.16-1.9-.38-9.48-15.35-9.13-30.7.16-7.3,4.56-15.47,9.13-22,.49-.7,1-1.39,1.48-2.06a104.89,104.89,0,0,1,7.84-9.45c.58-.62.91-.95.91-.95s-1-3.35-1.75-6.26a1.6,1.6,0,0,0-.05-.21.36.36,0,0,0,0-.1.31.31,0,0,0,0-.07c-.42-1.79-.68-3.34-.44-3.72.63-1,4.3-2.15,4.93-2.9s3.28-13.52,5.3-14.91,5.35-2.3,16.72-6.77l1.73-.68c12.75-5.05,25.26-11.18,25.26-11.18l4.8-5.9h2.14l-.7,1.5,0,.05c.34,1.52.73,3,1.17,4.37a.36.36,0,0,0,0,.11C273,166.14,290,172.85,290,172.85c11.8-8.71,11.57-22.54,11.57-22.54v-1.9l2.21.66,1.51,3.6s2.56,4,12.7,8.44a60.32,60.32,0,0,1,5.57,2.85c9.28,5.27,19.6,13.42,20.39,15.15a5.61,5.61,0,0,1,.27.86h0c1.09,4.28,3.33,20.31,5.41,26a13.1,13.1,0,0,0,4.86,6.56h0a7.61,7.61,0,0,0,1.94,1q.24,1.32.45,2.61C361.25,243.62,353,262.23,351.12,263.53Z" transform="translate(-114.03 -40.51)"/><path class="cls-17" d="M242.29,211.77l-8.24,2.77L232.73,213s-8.15,18.57-15.54,27.66c-.88,1.08-1.81,2.15-2.77,3.18a81,81,0,0,1-6.36,6.15l-6.28-27.07-3.19-20.55a104.89,104.89,0,0,1,7.84-9.45c.58-.62.91-.95.91-.95s-1-3.35-1.75-6.26a1.6,1.6,0,0,0-.05-.21.36.36,0,0,0,0-.1.31.31,0,0,0,0-.07c-.42-1.79-.68-3.34-.44-3.72.63-1,4.3-2.15,4.93-2.9s3.28-13.52,5.3-14.91c0,0-1.32,12.25,5.69,27.79l3.41,4.8,10,8S238.16,209.46,242.29,211.77Z" transform="translate(-114.03 -40.51)"/><path class="cls-18" d="M218.45,233.93c-1.77,13.13-21.34,23.24-21.34,23.24-4.36,0-9.23-7.58-13.65-16.93s-4.69-36.21-4.92-37.87-2.7-5-2.85-6.4,4-4.36,4-4.36l0-.07,0-.07c-.43-.92-2.85-6.11-2.68-7.06s4.82-3.31,4.82-3.31l.29,5.11s10.78-2,14.43-10.39l.64-2.56,1.8,1.2v11s.37,1.71.94,1.71,4.77-2.1,5.65-1.81,1.76,6.17,2.94,6.92,4.3,2.94,4.77,4a19,19,0,0,1,.25,4.15,42.4,42.4,0,0,0,.41,6.94C214.54,210.27,220.22,220.79,218.45,233.93Z" transform="translate(-114.03 -40.51)"/><path class="cls-19" d="M397.44,222.68c-.88,1.39-5.3,4.3-6.44,5.44s0,4.87,0,4.87a153.35,153.35,0,0,1-39.88,30.54l-.16.08c-11.66-7.84-10.66-20.75-6.79-31.63a82.1,82.1,0,0,1,10.32-19.38h0a24.41,24.41,0,0,1,5.92-1.64,3.59,3.59,0,0,1,2.19.68c1.42.88,2.62,2.27,3.78,1.69,1.71-.86,5.53-9.89,8.12-10.14,1.81-.17,4.32,1.67,6,2.72.73.46,1.3.77,1.58.69,1-.25,4.17-4.11,4.43-4.21s1.72,1,1.72,1l-1,1.28A35,35,0,0,0,394,219.84l3.47-5.08S398.33,221.29,397.44,222.68Z" transform="translate(-114.03 -40.51)"/><path class="cls-20" d="M301.51,149.26c0,.13,0,.26-.05.39a7.73,7.73,0,0,1-.19.8,0,0,0,0,1,0,0c-1.19,4.41-6,8.92-12.07,6.75-6.63-2.37-19.25-29.1-19.25-29.1l1.27-5.71,30,24.4.33,2.31Z" transform="translate(-114.03 -40.51)"/><path class="cls-21" d="M201.78,144.37s-1.83-10.11-1-17.56a81,81,0,0,0-.21-15.92,4.11,4.11,0,0,0-3.14,0c-1.33.76-4.42,8.47-3,14.66s.32,21,.32,21h-2.09l-4.55-6.25-2.21-.64s-12.72,12-12.53,19.14l1.66,6.35,15.67-.54L200.89,153Z" transform="translate(-114.03 -40.51)"/><path class="cls-22" d="M185.86,139.69A81.23,81.23,0,0,0,188,154.47a3.54,3.54,0,0,1-3.57,3l-.8-.9s-.57,3.17-3.46,3.41l-2.75-2.75.71,2.27a3.89,3.89,0,0,1-3.6,2.33s-4.36-3.41-4.64-7.87l4.31-3.64v-2.8l5.11-3.6.1-2A12.08,12.08,0,0,1,185.86,139.69Z" transform="translate(-114.03 -40.51)"/><path class="cls-23" d="M201,124.67a7.17,7.17,0,0,1-1.86,2.71,15.85,15.85,0,0,1-4.24,1.34l-.14,17.86h-2.09l-4.55-6.25s2.31,3.56,2.45,6.25l-1.8.88-1.56-5.35-.74,3.85.73,4.8a12.62,12.62,0,0,1,7.58-2.42l.73,1.33s-8.82,7.31-10.86,11.62c0,0,4.36-5.54,14.31-11.65l.94-2.93,1.26-7S199.92,129.59,201,124.67Z" transform="translate(-114.03 -40.51)"/><path class="cls-24" d="M208.35,155.8c-.82,2.46-9.41,12.69-10.36,14.91a30,30,0,0,0-1.52,5.11C192.25,185,182,186.21,182,186.21l-.47-8.24s-5.49-3.16-6.42-4.89v0l-.11-.29a68.8,68.8,0,0,1,0-7.58l9.61-3.89c4.17-5.4,14.31-11.65,14.31-11.65l.47-2.83c-7.28-3.58-6.06-14.41-4.83-15.74a5.4,5.4,0,0,1,3.5-1.32s2.66,8.71,4.36,12.79S209.17,153.34,208.35,155.8Z" transform="translate(-114.03 -40.51)"/><path class="cls-25" d="M179.39,141.87s1.07,9.95,4.22,14.69a23.19,23.19,0,0,1-4.32-12.65Z" transform="translate(-114.03 -40.51)"/><path class="cls-25" d="M174.18,147.51s1,8,6,12.46c0,0-4.37-2.18-6-9.66Z" transform="translate(-114.03 -40.51)"/><path class="cls-26" d="M199.32,168.59s-10.83,10.52-17.75,9.38l.47,8.24a18.28,18.28,0,0,0,15.07-13A31.55,31.55,0,0,1,199.32,168.59Z" transform="translate(-114.03 -40.51)"/><path class="cls-27" d="M428.36,182.89s-9.95,18.19-21.6,23.78h-4l-9.19,13.93s-5.94-3.73-6.38-16A11.17,11.17,0,0,0,389.8,200s-3.28-2.58-4.17-4.47-1.2-7.58-1.83-9.92-6-7.2-7.2-7.83-6.63-.95-6.63-.95-.76-2,0-2.9,9.22-4.24,13.83-1.08a20.77,20.77,0,0,0,.82,3.67c.51,1.26,4.55,5.74,5.18,5.74s3.35-2.27,4.55-4a178.56,178.56,0,0,0,8.74-19.32.5.5,0,0,1,0-.13c0-.07.05-.14.06-.2a.93.93,0,0,0,0-.13s0,0,0-.05c1.14-3.85,7.77-11.24,11.31-13.26a2.09,2.09,0,0,1,2.33,1.51s-2.84,8.09-5.81,12.89c-.5.81-1,1.76-1.6,2.78h0c-2.53,4.65-5.38,10.74-5.79,11.63l-.05.11,1.58.81,4.27-4.05,4.38-4.15,10.05,10.61-1,1.26-3.14,4,1.59.29,3.7-4.09Z" transform="translate(-114.03 -40.51)"/><path class="cls-28" d="M426,186.76l-3.18,4.67S405.4,178,401.61,176.83s-5.18-.38-5.18-.38l-3.91,5s7.2,6.38,7.83,15c0,0-2.4-10.86-10.55-14.15.63,0,3.35-2.27,4.55-4a178.56,178.56,0,0,0,8.74-19.32,5,5,0,0,0,.16,3.41c.86,1.59,5.92.09,6.22,0h0l-5.8,11.63-.05.11,1.58.81,4.27-4.05-2.14,5,15.58,2.75-3.14,4,1.59.29Z" transform="translate(-114.03 -40.51)"/><path class="cls-29" d="M413.86,166.66s3-.44,5,3.48l-.44,1.26s3,.58,5.81,5.37a16.19,16.19,0,0,1-8.78,6.69s-2.9-.82-3.41-3.28l.57-1.58-2.27,1.71s-2.72.82-3.92-3.23Z" transform="translate(-114.03 -40.51)"/><path class="cls-30" d="M429.27,181.63a4.67,4.67,0,0,0-2.46-4.8l-6,6.63a3.09,3.09,0,0,0,2.78,2.59S427.69,184.66,429.27,181.63Z" transform="translate(-114.03 -40.51)"/><path class="cls-31" d="M385.63,195.53a44.46,44.46,0,0,0,17.15,11.14l-4.4,6.66-9.17-11.65.59-1.68S386.13,197.24,385.63,195.53Z" transform="translate(-114.03 -40.51)"/><path class="cls-25" d="M418.41,171.4s-2.9,4.8-5.81,7.2l-.57,1.58s5.64-3.81,7.72-8.2A3.57,3.57,0,0,0,418.41,171.4Z" transform="translate(-114.03 -40.51)"/><path class="cls-32" d="M397.44,222.68c-.88,1.39-5.3,4.3-6.44,5.44s0,4.87,0,4.87a153.35,153.35,0,0,1-39.88,30.54l-.16.08c-1.52.19-8.91-1.89-16.3-16.67-6.7-13.39-8.62-22.33-8.93-23.89l0-.24,1.63-2.21,2.42-27.28,1.7,5.49c6.44-7.77,12.51-19.7,12.51-19.7l.27.86h0c1.09,4.28,3.33,20.31,5.41,26a13.1,13.1,0,0,0,4.86,6.56v0h0c-5.93,5.41-8.87,13.19-10.32,19.38a53.68,53.68,0,0,0-1.42,10,67.43,67.43,0,0,1,6.82-17,36.5,36.5,0,0,1,7.33-8.85,58.85,58.85,0,0,1,5.72-4.58c1.42.88,2.62,2.27,3.78,1.69-7.8,11.71-7.61,34.89-.28,30.47s9-13.8,9-13.8c-1.73-11.43-1.22-24.32.17-26.77,1.69,0,6.52,3.45,6.8,3.37A39.6,39.6,0,0,0,388,229l4.17-6.45a40,40,0,0,1-5.62-20.19c.25-.11,1.72,1,1.72,1l-1,1.28A35,35,0,0,0,394,219.84l3.47-5.08S398.33,221.29,397.44,222.68Z" transform="translate(-114.03 -40.51)"/><path class="cls-33" d="M317,306.81v4l-.07.07-.22.2-.18.15c-1.8,1.42-9.43,6.07-33.27,7.35-28.25,1.51-47.07-7.58-47.07-7.58l1.42-3.89s-1.32-1.13-1.42-1.7,1-1.9,1-1.9-2.84-1.51-2.84-3.41c0-1.71,4.64-6.66,5.39-11.31a6.76,6.76,0,0,0,.11-1.48c-.19-5-4.51-9.43-5.11-12.27v0c-.57-2.84,7.39-9.85,7.39-9.85-6.82-21.6-8.15-50.59-8.15-50.59L232.73,213s-8.15,18.57-15.54,27.66S199,257.55,197.11,257.17c-4.36,0-9.23-7.58-13.65-16.93s-4.69-36.21-4.92-37.87-2.7-5-2.85-6.4c4.74,8.15,12.29,5.75,12.29,5.75-5.47.12-8.31-10.11-8.31-10.11l0-.07,0-.07-2.67-7.05c.3.34,6.55,7.33,12.59,3,6.19-4.42,9.38-13,9.38-13v11s.37,1.71.94,1.71a134.15,134.15,0,0,1-2.74,17.29c-2.81,13.13-6.66,25.81-6.66,25.81s10.44-5.68,14.11-20.08a60.74,60.74,0,0,0,1.87-17.24,43.22,43.22,0,0,0-.84-7.21,1.6,1.6,0,0,0-.05-.21.36.36,0,0,0,0-.1.43.43,0,0,0,0,0l1,2.14,1.92,4.76c2.23,18.48-2.37,46.33-2.37,46.33,6.7-8.34,8.09-26.78,7.8-31.26-.13-2.14-.3-4.78-.41-6.94-.15-2.36-.25-4.15-.25-4.15l13.71,8.18-2.53-8,10,8s9,10.8,18.19,12.06,43.07.51,43.07.51-29.43,1.89-38,4.42-10.23,5.43-10.23,5.43c6.21,31.59,40.58,42.24,41.65,42.56-31.18-4.68-45.69-31.19-45.69-31.19s-.51,14.91,1.89,20.59,16.55,19.58,34.74,22.48a41.89,41.89,0,0,0,4.53.46c15.34.72,28-7.12,29.34-8l.11-.07,0,0c-.49.75-6.78,9.59-32.18,10.56-1.54.06-3,.05-4.5,0h0c-23.54-1-35.53-16.67-35.53-16.67s-8.71,4.68-3.15,11.62l.18.22c1.64,1.89,5.25,4.2,9.52,6.58l.35.2c5.16,2.85,11.21,5.79,15.89,8.22l.07,0a59.23,59.23,0,0,1,6.52,3.73h0c1.32,1,1.59,1.58.3,1.73-6.57.76-31.45-4.67-32.46-3.16s1.23,5.43,1.23,5.43c22.84,11.32,71.71,5.74,73.25,5.57C272.5,318.3,239,305,239,305l1.11,3.92a146.33,146.33,0,0,0,39.69,6.82c21.48.5,34.87-5,34.87-5Z" transform="translate(-114.03 -40.51)"/><path class="cls-34" d="M300.31,216.87s16.26.89,27,3.73L321.78,229A73.77,73.77,0,0,0,300.31,216.87Z" transform="translate(-114.03 -40.51)"/><path class="cls-35" d="M315.51,261.71s-10.15,8.47-20.13,12.38a67.34,67.34,0,0,1-19.58,4.3s5.74,1.7,19.85-.57,19-9.92,19-9.92Z" transform="translate(-114.03 -40.51)"/><path class="cls-36" d="M320.06,294.32h0c-18.78,4.85-42.62-2.11-42.42-3s6.53.38,21.21-2.56c14.23-2.85,19.39-7.91,19.7-8.22-.12.86-2.08,2.75-2.64,4.81C315.53,286.77,318.19,291.09,320.06,294.32Z" transform="translate(-114.03 -40.51)"/><path class="cls-37" d="M269.05,219.42c-16,1.63-20.36,6.1-20.36,6.1-4.51.57-14.64-11-14.64-11L232.73,213s-8.15,18.57-15.54,27.66c-.88,1.08-1.81,2.15-2.77,3.18l1.05-2.36s1.72-.82,2.22-9.85-3.79-22.48-3.82-24.31-.66-11.09-.66-11.09l13.71,8.18-2.53-8,10,8s3.91,5.88,13.78,10.78C257.46,219.84,267.9,219.47,269.05,219.42Z" transform="translate(-114.03 -40.51)"/><path class="cls-38" d="M232.73,213l9.56-1.25a71.87,71.87,0,0,0,11.48,5.65l-6.39,9.43s2.54,13.44,9.82,21c0,0-19.32-10.73-22-19.75Z" transform="translate(-114.03 -40.51)"/><path class="cls-39" d="M176.94,184.42l2.73,7.19s2.78,9.7,8.31,10.11,10.93-16.27,10.93-16.27v-11s-5.88,12.6-12.23,14S176.94,184.42,176.94,184.42Z" transform="translate(-114.03 -40.51)"/><path class="cls-40" d="M210,178.73s4.93,9.85,11,12.88c0,0-7.21-17.5-5.69-27.79C215.29,163.82,212.64,165.47,210,178.73Z" transform="translate(-114.03 -40.51)"/><path class="cls-41" d="M329.74,193.32l1.7,5.49,1.72,45.05a109.09,109.09,0,0,1-7.43-20.81l1.59-2.45S330,203.62,329.74,193.32Z" transform="translate(-114.03 -40.51)"/><path class="cls-42" d="M382.09,206.58s-1,22.13,8.44,24L391,233S378.83,232.54,382.09,206.58Z" transform="translate(-114.03 -40.51)"/><path class="cls-43" d="M366.4,213.31s-.36.79-3.78-1.69c0,0-11.83,8.38-16.39,20.19,0,0,7.29-10.85,11.17-12s4.82,3.16,4.82,3.16S363.76,216.84,366.4,213.31Z" transform="translate(-114.03 -40.51)"/><path class="cls-44" d="M175.69,196s4.55,8.39,13.08,5.76c0,0-5.11,3.44-10.23.64C178.54,202.37,175.36,196.92,175.69,196Z" transform="translate(-114.03 -40.51)"/><path class="cls-45" d="M205.5,185.35s6.26,23.4-10.07,41a27.14,27.14,0,0,0,13-18.05A38.75,38.75,0,0,0,205.5,185.35Z" transform="translate(-114.03 -40.51)"/><path class="cls-46" d="M317.64,166.65s-.7,10.56-5.77,18.14-15.1,12.69-15.1,12.69,12.6-4.64,18.38-11.17S317.64,166.65,317.64,166.65Z" transform="translate(-114.03 -40.51)"/><path class="cls-47" d="M253.19,150.76A66.82,66.82,0,0,0,256,168.59c2.84,9,27.51,24.73,27.51,24.73s-25.42-10.57-30.35-20.06S253.19,150.76,253.19,150.76Z" transform="translate(-114.03 -40.51)"/><path class="cls-48" d="M305.29,152.67c-.78,9.3-3.61,15.78-6.63,20.15-4.16,6-8.66,8.05-8.66,8.05a52,52,0,0,1-11.76-7.09A60,60,0,0,1,259,145.28c6,14.54,14.86,23.35,21.56,28.31a43.28,43.28,0,0,0,9.41,5.52v-4.65a30.9,30.9,0,0,1-3.1-1.36c-11.8-5.95-18-18.35-20.9-26.37l0,0a57,57,0,0,1-2.18-7.39h2.14l-.7,1.5,0,.05c.34,1.52.73,3,1.17,4.37a.36.36,0,0,0,0,.11C273,166.14,290,172.85,290,172.85c11.8-8.71,11.57-22.54,11.57-22.54v-1.9l2.21.66Z" transform="translate(-114.03 -40.51)"/><path class="cls-49" d="M375.29,203.21s-3.21,10.47-.17,26.77c0,0,1.51-20.65,2.65-22.45s4.32-.95,4.32-.95A72.14,72.14,0,0,0,375.29,203.21Z" transform="translate(-114.03 -40.51)"/><path class="cls-50" d="M344.17,260.18c-2.8-2.45-6.16-6.54-9.51-13.24-6.7-13.39-8.62-22.33-8.93-23.89l1.59-2.45,2.13-20.6,2-1.19A84.28,84.28,0,0,0,344,179.11a5.61,5.61,0,0,1,.27.86h0c1.09,4.28,3.33,20.31,5.41,26a13.1,13.1,0,0,0,4.86,6.56s-12.31,18.26-12.91,31.29C341.05,255.72,343.69,259.58,344.17,260.18Z" transform="translate(-114.03 -40.51)"/><path class="cls-51" d="M271.08,298.26s-22.19-3.64-31.25-9.48h0a6.76,6.76,0,0,0,.11-1.48c-.19-5-4.51-9.43-5.11-12.27.1.27.75,1.77,3.9,4.47a66.94,66.94,0,0,0,9.52,6.58l.35.2c6.4,3.78,11.91,6.34,15.89,8.22l.07,0c3.58,1.68,5.9,2.79,6.52,3.73Z" transform="translate(-114.03 -40.51)"/><path class="cls-52" d="M318.55,280.59c-.12.86-2.08,2.75-2.64,4.81,0,0-8.14,8.62-38.27,6,.2-.85,6.53.38,21.21-2.56C313.08,286,318.24,280.9,318.55,280.59Z" transform="translate(-114.03 -40.51)"/><path class="cls-53" d="M323.56,164,304.3,170.2l-5.64,2.62H290l-3.1.25-1.64.12-4.67.37-2.35.19-23.1-8.36L251,163.93l-19-6.88,1.73-.68c12.75-5.05,25.26-11.18,25.26-11.18l4.8-5.9h2.14a71.16,71.16,0,0,0,4-11.17l1.27-5.71c.09-.55.13-.85.13-.85l6.8,3.59,22.93,18.34c0,1.25,0,2.37.09,3.32l.33,2.31c.06-.45.08-.71.08-.71l2.21.66,1.51,3.6s2.56,4,12.7,8.44A60.32,60.32,0,0,1,323.56,164Z" transform="translate(-114.03 -40.51)"/><path class="cls-54" d="M308.89,146.39A31.37,31.37,0,0,1,290,143.61c-9.91-4.8-18.24-19-18.75-22.48s3.79-12.76,3.79-20-3.53-19.58,2.4-26.28,33.22-7.7,42.07.89c0,0,2.74,6.88,2.74,10.77a28.33,28.33,0,0,1-.42,3.91c-.08.59-.19,1.22-.29,1.87-.79,4.71-1.88,10.46-1.37,13a12.64,12.64,0,0,0,.79,2.46h0c1.09,2.52,2.71,4.53,3,6.71C324.34,117.34,320.52,137.55,308.89,146.39Z" transform="translate(-114.03 -40.51)"/><path class="cls-55" d="M275,99.14s-2.45-6.15-8.61-6.25c0,0-3.6,1.43-4.17,4.17,0,0,1.33,10,2.84,14.59s7.08,4,7.08,4A23.59,23.59,0,0,0,275,99.14Z" transform="translate(-114.03 -40.51)"/><path class="cls-56" d="M298.63,119.39a5.65,5.65,0,0,1,2.94.5c.88.67,4.1,3.79,8.18,4.65s6.8-2.62,7.67-2.8,1.82,1.05,1.82,1.05a3.42,3.42,0,0,0-2.49-2.06s-.86,3.27-6.77,2.15-8.41-3.74-8.41-3.74l-.3-.54A16.22,16.22,0,0,0,298.63,119.39Z" transform="translate(-114.03 -40.51)"/><path class="cls-57" d="M289.92,88.8l.08-.63s5.89-10.34,17.54-10.62,14.29,7,14.29,7L324,81.29l-4.92-10-34.24-.56-8.34,6.72-1.05,16.47,3.71,21.74,9,4.8,2.54-2.25c-.94-7.28-6.35-13.93-6.35-13.93l3.95-2.74s10.13,4.9,16,3.43c0,0,4.41-12.85,4.15-22.38C308.45,82.59,293.44,84.81,289.92,88.8Z" transform="translate(-114.03 -40.51)"/><path class="cls-58" d="M289.4,89.56s.57-3.72,6.85-5.21c7-1.66,12.69-3.06,12.69-3.06s-1.24,4.08-3.57,5.61c0,0-7.41-.27-11.16.59S289.4,89.56,289.4,89.56Z" transform="translate(-114.03 -40.51)"/><path class="cls-58" d="M321.83,84.57s-3.56,2.74-6,9.27c0,0,2.32-3,4.45-3a1.22,1.22,0,0,1,1.23,1.47A13.65,13.65,0,0,0,321.83,84.57Z" transform="translate(-114.03 -40.51)"/><path class="cls-59" d="M291.75,100.09s.38-7.86,8.05-9.85a16,16,0,0,1,3,7.58S298.76,97.06,291.75,100.09Z" transform="translate(-114.03 -40.51)"/><path class="cls-60" d="M313.73,103.22s.62-6.26,4.21-8.57c0,0,2.45,1.83,2.2,7.07C320.14,101.72,318,101,313.73,103.22Z" transform="translate(-114.03 -40.51)"/><path class="cls-61" d="M291.75,100.09s2.49,3.07,9.47,3.67a10.93,10.93,0,0,0,1.2-6S296,97.16,291.75,100.09Z" transform="translate(-114.03 -40.51)"/><path class="cls-61" d="M313.73,103.22v.92s1.07,2.24,4.92,2.62a10.82,10.82,0,0,0,1.35-5.07S317.55,101.07,313.73,103.22Z" transform="translate(-114.03 -40.51)"/><path class="cls-62" d="M299.21,97.61a8.64,8.64,0,0,0-1.61,5.55,27.25,27.25,0,0,0,3.62.6,9.41,9.41,0,0,0,1.2-6A9.78,9.78,0,0,0,299.21,97.61Z" transform="translate(-114.03 -40.51)"/><path class="cls-62" d="M317.38,101.79s-1,1.08-1.19,4.37a7.52,7.52,0,0,0,2.46.6,9.08,9.08,0,0,0,1.35-5.07A4.38,4.38,0,0,0,317.38,101.79Z" transform="translate(-114.03 -40.51)"/><path class="cls-58" d="M298.63,103.39s-.63-4.25,1.8-5.87l2,.25a8.59,8.59,0,0,1-1.2,6S299.24,103.53,298.63,103.39Z" transform="translate(-114.03 -40.51)"/><path class="cls-58" d="M318.26,101.61a18.14,18.14,0,0,0-1.32,4.83,5.55,5.55,0,0,0,1.71.32,8.27,8.27,0,0,0,1.35-5.07A4,4,0,0,0,318.26,101.61Z" transform="translate(-114.03 -40.51)"/><path class="cls-63" d="M291.75,100.09s4.64-2.7,12.55-1.16l-1.47-1.11A13.24,13.24,0,0,0,291.75,100.09Z" transform="translate(-114.03 -40.51)"/><path class="cls-63" d="M313.73,103.22a12.49,12.49,0,0,1,8.06-.93L320,101S317.09,100.52,313.73,103.22Z" transform="translate(-114.03 -40.51)"/><path class="cls-64" d="M296.77,100.09a2.77,2.77,0,0,1,2.4.88A2.2,2.2,0,0,1,296.77,100.09Z" transform="translate(-114.03 -40.51)"/><path class="cls-64" d="M315.43,103.76s2-.39,2.66.52C318.09,104.28,317,105,315.43,103.76Z" transform="translate(-114.03 -40.51)"/><path class="cls-65" d="M292.21,100.55A18.19,18.19,0,0,0,301.6,105l.15-2.1-.53.89S295.67,103.43,292.21,100.55Z" transform="translate(-114.03 -40.51)"/><path class="cls-65" d="M313.73,104.14s.64,2.3,5.34,3.34l-.15-1.12-.27.4S315.31,106.33,313.73,104.14Z" transform="translate(-114.03 -40.51)"/><path class="cls-66" d="M304.3,113.36a16.67,16.67,0,0,1,5,0c3.22.38,6.85,1.26,8.82,0,0,0-2.62,2.63-4.9,3s-5.75-1.6-5.75-1.6l-1.51,0A4.19,4.19,0,0,1,304.3,113.36Z" transform="translate(-114.03 -40.51)"/><path class="cls-67" d="M306.15,114.81a2.46,2.46,0,0,1,1.45-.38c.66.13,1.34,1.09,1.34,1.09A6.61,6.61,0,0,0,306.15,114.81Z" transform="translate(-114.03 -40.51)"/><path class="cls-68" d="M318.09,113.36c.85-.82-3.51-8.59-5.6-8.87s-4,8.7-4,8.7,2.9.41,5.71.78S318.09,113.36,318.09,113.36Z" transform="translate(-114.03 -40.51)"/><path class="cls-69" d="M321.21,88.92c-1.18-.15-5.35,4.92-5.35,4.92s-2.65,8.21-2.13,10.64,7,3.73,7,3.73l.27-.43h0a12.64,12.64,0,0,1-.79-2.46c-.51-2.52.58-8.27,1.37-13a9.67,9.67,0,0,0,.29-1.87C321.86,89.7,321.75,89,321.21,88.92Z" transform="translate(-114.03 -40.51)"/><path class="cls-70" d="M321,122.26c-1.33-2.78-.51-4.23-12.06-5.74-16.35-2.15-17.75,2.84-20.53,2.08a2.67,2.67,0,0,1-.33-.12c-3-1.17-10.1-8.14-10.28-17.53-.19-9.76,6.35-16.68,6.35-16.68-2.37-2-3.32-7.76-.76-10.23s6.92-1.89,17.62-.76,10.71.48,10.71.48c3.4.87,5.35,4.06,5.9,5.08.11.2.16.32.16.32l1.33-1.23a17.42,17.42,0,0,1,2.94,10.89s5.87-11.94,5.2-13.63a45.38,45.38,0,0,0-4.82-8h0s-.95-9.09-3.79-9.09-15,2.74-15,2.74a17.22,17.22,0,0,0,1.14-6.72l-.05.05c-4,3.55-7.83,3.94-13.31,6.48a13.87,13.87,0,0,0-5.13,3.72l-.37.44-.39.47c-.38.48-.77,1-1.24,1.47a.33.33,0,0,1-.06.06l0,0a15.68,15.68,0,0,1-1.59,1.49c-3.6,2.93-11.52,4.89-12.47,8s1.2,7.32,2.34,11.68a23.73,23.73,0,0,1,.61,8.21,16.13,16.13,0,0,1,2.52,12c-1.11,6.37-3.54,7.41-3.54,7.41a10.91,10.91,0,0,0-.9,6.79c3.5,13.92,18,22.21,18,22.21,12.88,4.8,21.35,2.71,21.35,2.71h0c9.37-6.11,12.58-26.33,12.72-27.27C323.11,120.3,321.37,123,321,122.26Zm-5.78,12.89c-2.27-.38-2.75-6.13-3.5-6.89s-4.87-.44-4.87-.44-3.79,4.3-5.3,4.42-9.6-3.16-7.85-8.08,7.85-5.56,7.85-5.56a14.8,14.8,0,0,0,7.89,3c4.74.31,6.45-.56,7-.81s3.62,1.13,3.54,5.43C320,129.17,317.52,135.53,315.24,135.15Z" transform="translate(-114.03 -40.51)"/><path class="cls-71" d="M314.65,106.21s4.08,5.07,3.69,7c-.42,2.09-5.15,3.2-5.15,3.2s3.79-1.31,4.57-3.2A25.4,25.4,0,0,0,314.65,106.21Z" transform="translate(-114.03 -40.51)"/><path class="cls-72" d="M322.07,88.82a17.42,17.42,0,0,0-2.94-10.89,29.09,29.09,0,0,0,3.31-10.71h0a36.71,36.71,0,0,1,1.54,7.1l3.28.86C327.94,76.88,322.07,88.82,322.07,88.82Z" transform="translate(-114.03 -40.51)"/><path class="cls-73" d="M317.64,78.84c-.55-1-2.5-4.21-5.9-5.08,0,0,0,.66-10.71-.48S286,71.58,283.41,74s-1.61,8.24.76,10.23c0,0-6.54,6.92-6.35,16.68.18,9.39,7.27,16.36,10.28,17.53l-.14,1s.53,21.5,5.76,23.21,16.06.82,17.07,1.83-.14,2.61-.24,2.76h0s-8.47,2.09-21.35-2.71c0,0-14.48-8.29-18-22.21a10.91,10.91,0,0,1,.9-6.79s2.43-1,3.54-7.41a16.13,16.13,0,0,0-2.52-12,23.73,23.73,0,0,0-.61-8.21c-1.14-4.36-3.29-8.59-2.34-11.68a13.64,13.64,0,0,0,10-2.21s1.06-1.47,5.75-2.23,23.54,1.14,23.54,1.14a16.2,16.2,0,0,0-5.87-2.61c-3.76-1-16.6.16-18,.27,1.47-.26,16-2.76,17.69-2.26s8.06,3.41,8.06,3.41C310.84,69,305.2,62,305.2,62A88.48,88.48,0,0,0,292,63.24a17,17,0,0,0-7.7,3.54l1.24-1.47.39-.47.37-.44,1.82-.31,9.14-3.69c3.07-1.64,7-5.7,7.48-6.2l.05-.05a17.22,17.22,0,0,1-1.14,6.72c7.72-.95,10.33-.47,10.33-.47C317.52,65.37,317.64,78.84,317.64,78.84Z" transform="translate(-114.03 -40.51)"/><path class="cls-74" d="M289.19,144.62a48.4,48.4,0,0,1,11.87-.84c7.15.29,11.25.32,9.48,3.55C310.54,147.33,301.57,149.36,289.19,144.62Z" transform="translate(-114.03 -40.51)"/><path class="cls-75" d="M314,60.4s4.34-1.69,6.06-1.42a3.37,3.37,0,0,0-1.39-1.09c-.71-.19-15,3-15,3S312.59,59.83,314,60.4Z" transform="translate(-114.03 -40.51)"/><path class="cls-76" d="M305.2,62s-.34,4.73-1.85,6.44l-17.69,2.26-5.19-.92a12.86,12.86,0,0,0,4.21-3.43C286.89,63.78,298.43,61.25,305.2,62Z" transform="translate(-114.03 -40.51)"/><path class="cls-77" d="M322.44,67.22A39.82,39.82,0,0,1,324,74.33l3.28.86A23.67,23.67,0,0,0,322.44,67.22Z" transform="translate(-114.03 -40.51)"/><path class="cls-78" d="M274.24,107.48s-1.25-6-4.3-8.92a7.16,7.16,0,0,0-6.52-2s.95,11.07,1.94,13.77,2.51,3.41,2.51,3.41a8.52,8.52,0,0,1-2.41-5.53c-.29-3.66-.38-8.83.42-9.44s4.06,1.78,4.06,1.78a10.93,10.93,0,0,0-1.64,4.52c-.62,3.27,1.66,5.64,2.51,5.59s-.05-3.78.1-4.85S272.94,105,274.24,107.48Z" transform="translate(-114.03 -40.51)"/><path class="cls-79" d="M271.19,100.07a7.46,7.46,0,0,0-3,6.67c.36,4.49,2.93,4.29,2.94,3.35s-.49-3.37-.23-4.74,2.47-.75,2.47-.75A31.85,31.85,0,0,0,271.19,100.07Z" transform="translate(-114.03 -40.51)"/><path class="cls-80" d="M323.27,120.05s-4.14,18.87-12.73,27.28C310.54,147.33,320.34,143.48,323.27,120.05Z" transform="translate(-114.03 -40.51)"/><path class="cls-80" d="M318.68,57.89s2.18,1.7,2.59,7.59-2.14,12.45-2.14,12.45a23.73,23.73,0,0,0,3.6-10.27C323,62.29,320.41,58.57,318.68,57.89Z" transform="translate(-114.03 -40.51)"/><path class="cls-81" d="M292.24,70.24a51.22,51.22,0,0,0,10.59,2.21l6.68.6s-2.23-2.16-7-2.81A48.08,48.08,0,0,0,292.24,70.24Z" transform="translate(-114.03 -40.51)"/><path class="cls-82" d="M316.64,120.46s2.42,0,3.37,3a25.24,25.24,0,0,1,1,4.5l.85-3.32s-1.11-4.21-2.27-5.15c-.84-.69-2.28-1.38-3-1.21Z" transform="translate(-114.03 -40.51)"/><path class="cls-83" d="M310.13,117.43l.41,3.6a12.75,12.75,0,0,0,4.89-.57l.35-2.18A27.6,27.6,0,0,0,310.13,117.43Z" transform="translate(-114.03 -40.51)"/><path class="cls-80" d="M323.56,164s17.23,12.58,19.46,16.91,3.14,17.9,6.17,23.78c0,0-2.07-9.61-3.52-17.15s-1.1-7.64-1.91-9.48S330.09,167.24,323.56,164Z" transform="translate(-114.03 -40.51)"/><path class="cls-80" d="M320.47,234s-8.3,35.55-7.92,37.95,5.75,7.3,6,8.64c0,0-4.11,5.5-3.92,6.72s7.2,8.92,7,11.31c-.05.69-4.6,8.19-4.6,8.19s5.14-7.37,5.39-8.55-6.29-11-6.49-12c-.49-2.59,3.27-4.49,3.4-6.2s-5.1-5.87-5.14-8.65S320.47,234,320.47,234Z" transform="translate(-114.03 -40.51)"/><path class="cls-80" d="M322.16,318.73s17.95,40.63,24.07,81.27C346.23,400,345.21,360.34,322.16,318.73Z" transform="translate(-114.03 -40.51)"/><path class="cls-68" d="M208.35,155.8s-4.64-1-6.57-5-.67-9.92-.67-9.92a102.24,102.24,0,0,0,5.45,9.36C208.37,152.58,208.86,155.29,208.35,155.8Z" transform="translate(-114.03 -40.51)"/></g></g></g></svg>