<svg xmlns="http://www.w3.org/2000/svg" xmlns:xlink="http://www.w3.org/1999/xlink" viewBox="0 0 443.5 323.55"><defs><style>.cls-1{fill:none;}.cls-2{isolation:isolate;}.cls-3{clip-path:url(#clip-path);}.cls-4{fill:url(#Áåçûìÿííûé_ãðàäèåíò_29);}.cls-5{fill:url(#Áåçûìÿííûé_ãðàäèåíò_28);}.cls-6{fill:#e5e2ff;}.cls-7{fill:url(#Áåçûìÿííûé_ãðàäèåíò_28-2);}.cls-21,.cls-8,.cls-9{mix-blend-mode:multiply;}.cls-8,.cls-9{opacity:0.62;}.cls-8{fill:url(#Áåçûìÿííûé_ãðàäèåíò_27);}.cls-9{fill:url(#Áåçûìÿííûé_ãðàäèåíò_94);}.cls-10{mix-blend-mode:screen;fill:url(#Áåçûìÿííûé_ãðàäèåíò_95);}.cls-10,.cls-21{opacity:0.5;}.cls-11{fill:#fff;}.cls-12{fill:url(#Áåçûìÿííûé_ãðàäèåíò_302);}.cls-13{fill:url(#Áåçûìÿííûé_ãðàäèåíò_302-2);}.cls-14{fill:url(#Áåçûìÿííûé_ãðàäèåíò_322);}.cls-15{fill:url(#Áåçûìÿííûé_ãðàäèåíò_322-2);}.cls-16{fill:url(#Áåçûìÿííûé_ãðàäèåíò_25);}.cls-17{fill:url(#Áåçûìÿííûé_ãðàäèåíò_25-2);}.cls-18,.cls-19,.cls-20,.cls-21,.cls-22{fill-rule:evenodd;}.cls-18{fill:url(#Áåçûìÿííûé_ãðàäèåíò_206);}.cls-19{fill:url(#Áåçûìÿííûé_ãðàäèåíò_206-2);}.cls-20{fill:url(#Áåçûìÿííûé_ãðàäèåíò_107);}.cls-21{fill:#601734;}.cls-22{fill:#b3d9ff;mix-blend-mode:soft-light;}.cls-23{fill:#ff1d9c;}.cls-24{fill:#6877ff;}.cls-25{fill:#4f31e0;}.cls-26{fill:#744ca2;}</style><clipPath id="clip-path" transform="translate(-78.34 -36.96)"><rect class="cls-1" width="600" height="400"/></clipPath><linearGradient id="Áåçûìÿííûé_ãðàäèåíò_29" x1="139.84" y1="275.2" x2="139.84" y2="204.01" gradientTransform="matrix(0.91, -0.42, 0.42, 0.91, -75.05, 53.74)" gradientUnits="userSpaceOnUse"><stop offset="0" stop-color="#dbccff"/><stop offset="1" stop-color="#d1bbff"/></linearGradient><linearGradient id="Áåçûìÿííûé_ãðàäèåíò_28" x1="139.83" y1="277.98" x2="139.83" y2="206.79" gradientTransform="matrix(0.91, -0.42, 0.42, 0.91, -75.05, 53.74)" gradientUnits="userSpaceOnUse"><stop offset="0" stop-color="#b5a6e7"/><stop offset="1" stop-color="#7760bf"/></linearGradient><linearGradient id="Áåçûìÿííûé_ãðàäèåíò_28-2" x1="139.83" y1="260.28" x2="139.83" y2="230.27" xlink:href="#Áåçûìÿííûé_ãðàäèåíò_28"/><linearGradient id="Áåçûìÿííûé_ãðàäèåíò_27" x1="135.57" y1="230.87" x2="144.09" y2="230.87" gradientTransform="matrix(0.91, -0.42, 0.42, 0.91, -75.05, 53.74)" gradientUnits="userSpaceOnUse"><stop offset="0" stop-color="#8b8be0"/><stop offset="1" stop-color="#a177b7"/></linearGradient><linearGradient id="Áåçûìÿííûé_ãðàäèåíò_94" x1="139.83" y1="232.85" x2="139.83" y2="227.69" gradientTransform="matrix(0.91, -0.42, 0.42, 0.91, -75.05, 53.74)" gradientUnits="userSpaceOnUse"><stop offset="0" stop-color="#fff"/><stop offset="1" stop-color="#a177b7"/></linearGradient><linearGradient id="Áåçûìÿííûé_ãðàäèåíò_95" x1="144.34" y1="263.34" x2="144.34" y2="230.26" gradientTransform="matrix(0.91, -0.42, 0.42, 0.91, -75.05, 53.74)" gradientUnits="userSpaceOnUse"><stop offset="0"/><stop offset="1" stop-color="#fff"/></linearGradient><linearGradient id="Áåçûìÿííûé_ãðàäèåíò_302" x1="504.25" y1="113.31" x2="504.25" y2="104.37" gradientUnits="userSpaceOnUse"><stop offset="0" stop-color="#459fff"/><stop offset="1" stop-color="#a96dff"/></linearGradient><linearGradient id="Áåçûìÿííûé_ãðàäèåíò_302-2" x1="84.26" y1="218.04" x2="84.26" y2="206.92" xlink:href="#Áåçûìÿííûé_ãðàäèåíò_302"/><linearGradient id="Áåçûìÿííûé_ãðàäèåíò_322" x1="439.04" y1="76.35" x2="439.04" y2="67.41" gradientUnits="userSpaceOnUse"><stop offset="0" stop-color="#b31a8f"/><stop offset="1" stop-color="#fe117e"/></linearGradient><linearGradient id="Áåçûìÿííûé_ãðàäèåíò_322-2" x1="150.86" y1="105.76" x2="150.86" y2="99.44" xlink:href="#Áåçûìÿííûé_ãðàäèåíò_322"/><linearGradient id="Áåçûìÿííûé_ãðàäèåíò_25" x1="362.52" y1="245.2" x2="362.52" y2="238.88" gradientUnits="userSpaceOnUse"><stop offset="0" stop-color="#8642a0"/><stop offset="1" stop-color="#6456c0"/></linearGradient><linearGradient id="Áåçûìÿííûé_ãðàäèåíò_25-2" x1="34" y1="276.37" x2="34" y2="270.72" xlink:href="#Áåçûìÿííûé_ãðàäèåíò_25"/><linearGradient id="Áåçûìÿííûé_ãðàäèåíò_206" x1="404.32" y1="275.2" x2="399.35" y2="232.51" gradientTransform="matrix(0.97, 0.26, -0.26, 0.97, 63.63, -54.68)" gradientUnits="userSpaceOnUse"><stop offset="0" stop-color="#1852a0"/><stop offset="1" stop-color="#067ed3"/></linearGradient><linearGradient id="Áåçûìÿííûé_ãðàäèåíò_206-2" x1="399.5" y1="275.37" x2="399.5" y2="231.62" xlink:href="#Áåçûìÿííûé_ãðàäèåíò_206"/><linearGradient id="Áåçûìÿííûé_ãðàäèåíò_107" x1="361.94" y1="289.27" x2="358.72" y2="261.66" gradientTransform="matrix(0.94, 0.33, -0.52, 1.49, 181.34, -235.91)" gradientUnits="userSpaceOnUse"><stop offset="0" stop-color="#188dc1"/><stop offset="1" stop-color="#06bfe7"/></linearGradient></defs><g class="cls-2"><g id="illustration"><g class="cls-3"><path class="cls-4" d="M155.1,185.61a23.82,23.82,0,0,0-10.56-9.26l-2.35,1.09,5.3,9.61a10.33,10.33,0,0,1-3.24,5.72v0a10.34,10.34,0,0,1-6.47-1.18l-4-10.23-2.36,1.1a23.8,23.8,0,0,0,.34,14s1,2.31,1.17,2.52c.94,1.08,3.36,2.34,8.06,2.05L157.22,232a8.48,8.48,0,1,0,8.76-4.09l-13.3-32.25c3.16-3.34,3.83-6,3.59-7.49A27.3,27.3,0,0,0,155.1,185.61Zm13.32,53.31-4.29,2-3.88-2.71.41-4.72,4.29-2,3.88,2.71Z" transform="translate(-78.34 -36.96)"/><path class="cls-5" d="M156.27,188.13a23.75,23.75,0,0,0-10.55-9.27l-2.35,1.1,5.29,9.6a10.22,10.22,0,0,1-3.24,5.72h0a10.3,10.3,0,0,1-6.47-1.19l-4-10.22-2.35,1.1a23.84,23.84,0,0,0,.33,14s3.67,4.91,9.23,4.56l16.21,30.92a8.47,8.47,0,1,0,8.76-4.1l-13.31-32.24C157.69,194.09,156.27,188.13,156.27,188.13Zm13.33,53.31-4.29,2-3.88-2.71.41-4.72,4.29-2,3.88,2.72Z" transform="translate(-78.34 -36.96)"/><rect class="cls-6" x="131.92" y="181.76" width="2.59" height="2.78" transform="translate(-143.34 36.64) rotate(-25.04)"/><rect class="cls-6" x="142.66" y="176.76" width="2.59" height="2.78" transform="translate(-140.22 40.72) rotate(-25.04)"/><rect class="cls-6" x="164.5" y="239.79" width="4.74" height="2.78" transform="translate(-164.74 56.34) rotate(-25.04)"/><path class="cls-7" d="M145.66,205.86,158.75,231a6.38,6.38,0,0,0,5.28-2.47l-10.65-26.29A10.09,10.09,0,0,0,145.66,205.86ZM163,228.75a7.7,7.7,0,0,1-1.69,1.11,6.5,6.5,0,0,1-1.81.54l-13.1-24.64a13.75,13.75,0,0,1,3.15-2.07,11,11,0,0,1,3.24-.95Z" transform="translate(-78.34 -36.96)"/><path class="cls-6" d="M163,228.75l1-.21a5.64,5.64,0,0,1-5.28,2.47l.77-.61A7.13,7.13,0,0,0,163,228.75Z" transform="translate(-78.34 -36.96)"/><path class="cls-8" d="M145.66,205.86l.76-.1a12.16,12.16,0,0,1,6.39-3l.57-.49a9.88,9.88,0,0,0-7.72,3.61Z" transform="translate(-78.34 -36.96)"/><path class="cls-9" d="M142.19,203.56a28.93,28.93,0,0,0,11.66-5.42l1.7,4.12s-1.93-1.91-6.16-.18c-4.95,2-4.68,6-4.68,6Z" transform="translate(-78.34 -36.96)"/><path class="cls-10" d="M155.55,202.26a5,5,0,0,0-2.58-.89L165.63,232l1.53-1.58Z" transform="translate(-78.34 -36.96)"/><path class="cls-11" d="M155.55,202.26s-1.32,4.09,2.49,6Z" transform="translate(-78.34 -36.96)"/><path class="cls-12" d="M508.72,108.84a4.47,4.47,0,1,1-4.47-4.47A4.47,4.47,0,0,1,508.72,108.84Z" transform="translate(-78.34 -36.96)"/><path class="cls-13" d="M89.82,212.48a5.57,5.57,0,1,1-5.56-5.56A5.56,5.56,0,0,1,89.82,212.48Z" transform="translate(-78.34 -36.96)"/><circle class="cls-14" cx="439.04" cy="71.88" r="4.47"/><circle class="cls-15" cx="150.86" cy="102.6" r="3.16"/><circle class="cls-16" cx="362.52" cy="242.04" r="3.16"/><circle class="cls-17" cx="34" cy="273.55" r="2.82"/><path class="cls-18" d="M388.58,286.42l-2.91,8.34C387.28,290.15,389.6,287.16,388.58,286.42Zm-2.91,8.34-2.93,8.35C383.48,302.89,384.05,299.38,385.67,294.76Zm2.91-8.34-2.91,8.34C387.28,290.15,389.6,287.16,388.58,286.42Zm-2.91,8.34-2.93,8.35C383.48,302.89,384.05,299.38,385.67,294.76Zm8.42,7.24,2.84,1.6,3.06-8.35-3.28-.55c.06-.31.11-.62.15-.92a21.39,21.39,0,0,0,.28-4.17l3.43-2.15L399,280.1l-3.29,3.15A9.66,9.66,0,0,0,394,280.8a6,6,0,0,0-.57-.56l2-4.64-5.35-1.74h0l-1.28,4.68a8.74,8.74,0,0,0-3.62.85l-.59-4.42-5.89,4.45,1.36,3.92a22.31,22.31,0,0,0-2.87,4.18l-2.84-1.6-3.06,8.35,3.28.55a22.54,22.54,0,0,0-.43,5.09l-3.43,2.15,1.56,7.36,3.29-3.14a9.13,9.13,0,0,0,2.25,3l-2,4.65,5.26,2.05.81-3,.56-2a9,9,0,0,0,3.63-.85l.58,4.42,5.89-4.46-1.36-3.91a22.31,22.31,0,0,0,2.31-3.21C393.73,302.66,393.91,302.33,394.09,302Zm-8.42-7.24c-1.62,4.62,0,9.37-2.93,8.35s-4-5.6-2.38-10.2,5.3-7.52,8.22-6.49S387.28,290.15,385.67,294.76Zm2.91-8.34-2.91,8.34C387.28,290.15,389.6,287.16,388.58,286.42Zm-2.91,8.34-2.93,8.35C383.48,302.89,384.05,299.38,385.67,294.76Z" transform="translate(-78.34 -36.96)"/><path class="cls-19" d="M396.93,303.6l3.06-8.35-3.13-1.47-.5-.24.33-4.6,3.46-1.69L399,280.1l-7.55-2.45,1.39,3.31,2.63-5.36-5.35-1.74-2.19-.71-5.27-2.06-1,3.6-4.59-2.18L371.21,277l1.78,4.82-5.5,15.27L364.77,307l5.23.57-1.71,3.93,5.28,2.06,7.54,2.45-1.21-2.42-.76-1.45,2.78.91,4.77,1.55,5.89-4.46-3.64-4.29,4.59-2.83Zm-16.57-10.69c1.62-4.61,5.3-7.52,8.22-6.49l-2.91,8.34-2.93,8.35C379.81,302.08,378.74,297.51,380.36,292.91Z" transform="translate(-78.34 -36.96)"/><path class="cls-20" d="M389.38,301.14l3.06-8.35-3.28-.55a23.75,23.75,0,0,0,.44-5.08L393,285l-1.57-7.36-3.29,3.14a9,9,0,0,0-2.25-3l2-4.64-5.27-2.06-1.37,5a8.92,8.92,0,0,0-3.62.84l-.58-4.41L371.21,277l1.35,3.92a22.39,22.39,0,0,0-2.87,4.19l-2.84-1.6-3.05,8.35,3.28.55a22.44,22.44,0,0,0-.44,5.08l-3.43,2.15,1.56,7.36,3.29-3.14a9.17,9.17,0,0,0,2.25,3l-2,4.64,5.27,2.05,1.36-5a8.94,8.94,0,0,0,3.63-.85l.58,4.42,5.89-4.46-1.36-3.91a22.39,22.39,0,0,0,2.87-4.19Zm-14.19-.49c-2.93-1-4-5.6-2.38-10.2s5.3-7.52,8.23-6.49,4,5.59,2.38,10.2S378.12,301.67,375.19,300.65Z" transform="translate(-78.34 -36.96)"/><polygon class="cls-21" points="322.23 250.5 314.69 248.04 311.26 250.19 318.8 252.65 322.23 250.5"/><polygon class="cls-22" points="314.24 273.14 306.69 270.68 305.33 266.76 312.88 269.22 314.24 273.14"/><polygon class="cls-21" points="307.59 240.82 311.72 242.02 313.12 240.69 315.87 241.58 317.14 238.64 309.6 236.18 307.59 240.82"/><path class="cls-21" d="M374.93,308.53l3.95,1.64-.32-2.49A7.08,7.08,0,0,1,374.93,308.53Z" transform="translate(-78.34 -36.96)"/><path class="cls-21" d="M375.54,285.9l6.66,3.52a10.23,10.23,0,0,1,1.71-1.81S382.17,280.27,375.54,285.9Z" transform="translate(-78.34 -36.96)"/><polygon class="cls-23" points="144.45 0 150.87 12.85 146.58 14.8 140.58 3 144.45 0"/><polygon class="cls-24" points="0 299.34 5.94 305.86 8.27 303.17 2.66 297 0 299.34"/><polygon class="cls-25" points="301.78 78.41 295.8 82.03 293.4 77.49 299.94 73.67 301.78 78.41"/><polygon class="cls-25" points="331.22 308.12 322.65 314.21 320.25 309.66 328.57 304.8 331.22 308.12"/><path class="cls-26" d="M347.86,87.33,340.5,68.06l19.09,4Zm-6.57-18.59L348,86.32l10.7-13.94Z" transform="translate(-78.34 -36.96)"/><rect class="cls-26" x="398.19" y="355.71" width="10.94" height="0.5" transform="matrix(0.59, -0.81, 0.81, 0.59, -200.41, 434.12)"/><polygon class="cls-26" points="261.58 242.2 254.63 233.55 255.02 233.24 261.97 241.88 261.58 242.2"/><polygon class="cls-26" points="47.25 302.92 33.38 292.86 33.67 292.45 47.54 302.51 47.25 302.92"/><rect class="cls-26" x="110.23" y="334.4" width="17.13" height="0.5" transform="translate(-297.74 189.4) rotate(-52.7)"/><rect class="cls-26" x="98.59" y="184.72" width="0.5" height="10.14" transform="translate(-193.48 152.05) rotate(-62.28)"/><polygon class="cls-26" points="369.71 34.41 369.34 34.08 379.71 22.25 380.08 22.58 369.71 34.41"/><rect class="cls-26" x="248.43" y="99.55" width="0.5" height="10.41" transform="translate(-98.97 84.76) rotate(-26.45)"/><rect class="cls-26" x="171.13" y="261.73" width="15.54" height="0.5" transform="translate(-204.75 138.86) rotate(-39.91)"/></g></g></g></svg>