<svg xmlns="http://www.w3.org/2000/svg" xmlns:xlink="http://www.w3.org/1999/xlink" viewBox="0 0 463.7 319.79"><defs><style>.cls-1{fill:none;}.cls-2{isolation:isolate;}.cls-3{clip-path:url(#clip-path);}.cls-4{fill:url(#Áåçûìÿííûé_ãðàäèåíò_29);}.cls-5{fill:url(#Áåçûìÿííûé_ãðàäèåíò_28);}.cls-6{fill:#e5e2ff;}.cls-7{fill:url(#Áåçûìÿííûé_ãðàäèåíò_28-2);}.cls-14,.cls-15,.cls-16,.cls-17,.cls-18,.cls-19,.cls-8,.cls-9{mix-blend-mode:multiply;}.cls-8,.cls-9{opacity:0.62;}.cls-8{fill:url(#Áåçûìÿííûé_ãðàäèåíò_27);}.cls-9{fill:url(#Áåçûìÿííûé_ãðàäèåíò_94);}.cls-10{mix-blend-mode:screen;opacity:0.5;fill:url(#Áåçûìÿííûé_ãðàäèåíò_95);}.cls-11{fill:#fff;}.cls-12{fill:#36d1f7;}.cls-12,.cls-14{opacity:0.6;}.cls-13{fill:#744ca2;}.cls-14{fill:url(#Áåçûìÿííûé_ãðàäèåíò_89);}.cls-15,.cls-16,.cls-17,.cls-18{opacity:0.3;}.cls-15{fill:url(#Áåçûìÿííûé_ãðàäèåíò_85);}.cls-16{fill:url(#Áåçûìÿííûé_ãðàäèåíò_85-2);}.cls-17{fill:url(#Áåçûìÿííûé_ãðàäèåíò_85-3);}.cls-18{fill:url(#Áåçûìÿííûé_ãðàäèåíò_85-4);}.cls-19{fill:#d1d4fb;}.cls-20{mix-blend-mode:soft-light;}.cls-21{fill:#e0ffff;}.cls-22{fill:url(#Áåçûìÿííûé_ãðàäèåíò_65);}.cls-23{fill:url(#Áåçûìÿííûé_ãðàäèåíò_14);}.cls-24{opacity:0.81;fill:url(#Áåçûìÿííûé_ãðàäèåíò_115);}.cls-25{fill:#473da2;}.cls-26,.cls-28{opacity:0.73;}.cls-26{fill:url(#Áåçûìÿííûé_ãðàäèåíò_97);}.cls-27{fill:#953da2;}.cls-28{fill:url(#Áåçûìÿííûé_ãðàäèåíò_97-2);}.cls-29,.cls-30,.cls-31,.cls-32{fill-rule:evenodd;}.cls-29{fill:url(#Áåçûìÿííûé_ãðàäèåíò_107);}.cls-30{fill:url(#Áåçûìÿííûé_ãðàäèåíò_206);}.cls-31{fill:url(#Áåçûìÿííûé_ãðàäèåíò_107-2);}.cls-32{fill:url(#Áåçûìÿííûé_ãðàäèåíò_206-2);}</style><clipPath id="clip-path" transform="translate(-65.3 -50.64)"><rect class="cls-1" width="600" height="400"/></clipPath><linearGradient id="Áåçûìÿííûé_ãðàäèåíò_29" x1="139.84" y1="275.2" x2="139.84" y2="204.01" gradientTransform="matrix(0.91, -0.42, 0.42, 0.91, -75.05, 53.74)" gradientUnits="userSpaceOnUse"><stop offset="0" stop-color="#dbccff"/><stop offset="1" stop-color="#d1bbff"/></linearGradient><linearGradient id="Áåçûìÿííûé_ãðàäèåíò_28" x1="139.83" y1="277.98" x2="139.83" y2="206.79" gradientTransform="matrix(0.91, -0.42, 0.42, 0.91, -75.05, 53.74)" gradientUnits="userSpaceOnUse"><stop offset="0" stop-color="#b5a6e7"/><stop offset="1" stop-color="#7760bf"/></linearGradient><linearGradient id="Áåçûìÿííûé_ãðàäèåíò_28-2" x1="139.83" y1="260.28" x2="139.83" y2="230.27" xlink:href="#Áåçûìÿííûé_ãðàäèåíò_28"/><linearGradient id="Áåçûìÿííûé_ãðàäèåíò_27" x1="135.57" y1="230.87" x2="144.09" y2="230.87" gradientTransform="matrix(0.91, -0.42, 0.42, 0.91, -75.05, 53.74)" gradientUnits="userSpaceOnUse"><stop offset="0" stop-color="#8b8be0"/><stop offset="1" stop-color="#a177b7"/></linearGradient><linearGradient id="Áåçûìÿííûé_ãðàäèåíò_94" x1="139.83" y1="232.85" x2="139.83" y2="227.69" gradientTransform="matrix(0.91, -0.42, 0.42, 0.91, -75.05, 53.74)" gradientUnits="userSpaceOnUse"><stop offset="0" stop-color="#fff"/><stop offset="1" stop-color="#a177b7"/></linearGradient><linearGradient id="Áåçûìÿííûé_ãðàäèåíò_95" x1="144.34" y1="263.34" x2="144.34" y2="230.26" gradientTransform="matrix(0.91, -0.42, 0.42, 0.91, -75.05, 53.74)" gradientUnits="userSpaceOnUse"><stop offset="0"/><stop offset="1" stop-color="#fff"/></linearGradient><linearGradient id="Áåçûìÿííûé_ãðàäèåíò_89" x1="351.8" y1="132.95" x2="528.85" y2="132.95" gradientUnits="userSpaceOnUse"><stop offset="0" stop-color="#9d68c2"/><stop offset="1" stop-color="#aec2ff"/></linearGradient><linearGradient id="Áåçûìÿííûé_ãðàäèåíò_85" x1="322.52" y1="149.18" x2="322.52" y2="95.78" gradientUnits="userSpaceOnUse"><stop offset="0" stop-color="#ccedff"/><stop offset="1" stop-color="#9d68c2"/></linearGradient><linearGradient id="Áåçûìÿííûé_ãðàäèåíò_85-2" x1="413.58" y1="123.14" x2="413.58" y2="99.62" xlink:href="#Áåçûìÿííûé_ãðàäèåíò_85"/><linearGradient id="Áåçûìÿííûé_ãðàäèåíò_85-3" x1="441.33" y1="123.14" x2="441.33" y2="99.62" xlink:href="#Áåçûìÿííûé_ãðàäèåíò_85"/><linearGradient id="Áåçûìÿííûé_ãðàäèåíò_85-4" x1="385.36" y1="123.14" x2="385.36" y2="99.62" xlink:href="#Áåçûìÿííûé_ãðàäèåíò_85"/><linearGradient id="Áåçûìÿííûé_ãðàäèåíò_65" x1="132.37" y1="65.35" x2="132.37" y2="40.73" gradientUnits="userSpaceOnUse"><stop offset="0" stop-color="#d93de3"/><stop offset="1" stop-color="#ff6dba"/></linearGradient><linearGradient id="Áåçûìÿííûé_ãðàäèåíò_14" x1="147.42" y1="65.35" x2="147.42" y2="40.73" gradientUnits="userSpaceOnUse"><stop offset="0" stop-color="#a242ea"/><stop offset="1" stop-color="#fe117e"/></linearGradient><linearGradient id="Áåçûìÿííûé_ãðàäèåíò_115" x1="193.4" y1="375.37" x2="206.71" y2="269.36" gradientUnits="userSpaceOnUse"><stop offset="0" stop-color="#067eff"/><stop offset="1" stop-color="#3e37a0"/></linearGradient><linearGradient id="Áåçûìÿííûé_ãðàäèåíò_97" x1="136.04" y1="282.77" x2="136.04" y2="236.11" gradientUnits="userSpaceOnUse"><stop offset="0" stop-color="#d906e3"/><stop offset="1" stop-color="#ff6df9"/></linearGradient><linearGradient id="Áåçûìÿííûé_ãðàäèåíò_97-2" x1="458.23" y1="348.82" x2="458.23" y2="290.45" xlink:href="#Áåçûìÿííûé_ãðàäèåíò_97"/><linearGradient id="Áåçûìÿííûé_ãðàäèåíò_107" x1="347.05" y1="37.46" x2="358.39" y2="-4.63" gradientUnits="userSpaceOnUse"><stop offset="0" stop-color="#188dc1"/><stop offset="1" stop-color="#06bfe7"/></linearGradient><linearGradient id="Áåçûìÿííûé_ãðàäèåíò_206" x1="327.58" y1="32.6" x2="336.03" y2="1.22" gradientUnits="userSpaceOnUse"><stop offset="0" stop-color="#1852a0"/><stop offset="1" stop-color="#067ed3"/></linearGradient><linearGradient id="Áåçûìÿííûé_ãðàäèåíò_107-2" x1="121.92" y1="160.57" x2="129.65" y2="131.88" gradientTransform="matrix(-1, 0, 0, 1, 141.36, -50.64)" xlink:href="#Áåçûìÿííûé_ãðàäèåíò_107"/><linearGradient id="Áåçûìÿííûé_ãðàäèåíò_206-2" x1="108.65" y1="157.26" x2="114.41" y2="135.87" gradientTransform="matrix(-1, 0, 0, 1, 141.36, -50.64)" xlink:href="#Áåçûìÿííûé_ãðàäèåíò_206"/></defs><g class="cls-2"><g id="illustration"><g class="cls-3"><path class="cls-4" d="M155.1,185.61a23.82,23.82,0,0,0-10.56-9.26l-2.35,1.09,5.3,9.61a10.33,10.33,0,0,1-3.24,5.72v0a10.34,10.34,0,0,1-6.47-1.18l-4-10.23-2.36,1.1a23.8,23.8,0,0,0,.34,14s1,2.31,1.17,2.52c.94,1.08,3.36,2.34,8.06,2.05L157.22,232a8.48,8.48,0,1,0,8.76-4.09l-13.3-32.25c3.16-3.34,3.83-6,3.59-7.49A27.3,27.3,0,0,0,155.1,185.61Zm13.32,53.31-4.29,2-3.88-2.71.41-4.72,4.29-2,3.88,2.71Z" transform="translate(-65.3 -50.64)"/><path class="cls-5" d="M156.27,188.13a23.75,23.75,0,0,0-10.55-9.27l-2.35,1.1,5.29,9.6a10.22,10.22,0,0,1-3.24,5.72h0a10.3,10.3,0,0,1-6.47-1.19l-4-10.22-2.35,1.1a23.84,23.84,0,0,0,.33,14s3.67,4.91,9.23,4.56l16.21,30.92a8.47,8.47,0,1,0,8.76-4.1l-13.31-32.24C157.69,194.09,156.27,188.13,156.27,188.13Zm13.33,53.31-4.29,2-3.88-2.71.41-4.72,4.29-2,3.88,2.72Z" transform="translate(-65.3 -50.64)"/><rect class="cls-6" x="131.92" y="181.76" width="2.59" height="2.78" transform="translate(-130.3 22.97) rotate(-25.04)"/><rect class="cls-6" x="142.66" y="176.76" width="2.59" height="2.78" transform="translate(-127.18 27.05) rotate(-25.04)"/><rect class="cls-6" x="164.5" y="239.79" width="4.74" height="2.78" transform="translate(-151.7 42.67) rotate(-25.04)"/><path class="cls-7" d="M145.66,205.86,158.75,231a6.38,6.38,0,0,0,5.28-2.47l-10.65-26.29A10.09,10.09,0,0,0,145.66,205.86ZM163,228.75a7.7,7.7,0,0,1-1.69,1.11,6.5,6.5,0,0,1-1.81.54l-13.1-24.64a13.75,13.75,0,0,1,3.15-2.07,11,11,0,0,1,3.24-.95Z" transform="translate(-65.3 -50.64)"/><path class="cls-6" d="M163,228.75l1-.21a5.64,5.64,0,0,1-5.28,2.47l.77-.61A7.13,7.13,0,0,0,163,228.75Z" transform="translate(-65.3 -50.64)"/><path class="cls-8" d="M145.66,205.86l.76-.1a12.16,12.16,0,0,1,6.39-3l.57-.49a9.88,9.88,0,0,0-7.72,3.61Z" transform="translate(-65.3 -50.64)"/><path class="cls-9" d="M142.19,203.56a28.93,28.93,0,0,0,11.66-5.42l1.7,4.12s-1.93-1.91-6.16-.18c-4.95,2-4.68,6-4.68,6Z" transform="translate(-65.3 -50.64)"/><path class="cls-10" d="M155.55,202.26a5,5,0,0,0-2.58-.89L165.63,232l1.53-1.58Z" transform="translate(-65.3 -50.64)"/><path class="cls-11" d="M155.55,202.26s-1.32,4.09,2.49,6Z" transform="translate(-65.3 -50.64)"/><path class="cls-12" d="M351.66,134.61l3.22,91.8a6.76,6.76,0,0,0,6.76,6.53H519.77a6.77,6.77,0,0,0,6.76-6.61l2.21-92.86a6.76,6.76,0,0,0-6.8-6.93l-163.57,1.07A6.76,6.76,0,0,0,351.66,134.61Z" transform="translate(-65.3 -50.64)"/><path class="cls-13" d="M519.77,233.19H361.64a7,7,0,0,1-7-6.77l-3.22-91.8a7,7,0,0,1,7-7.26l163.57-1.07a7.07,7.07,0,0,1,5,2.1,7,7,0,0,1,2,5.08l-2.22,92.87A7,7,0,0,1,519.77,233.19ZM522,126.79h0l-163.56,1.07a6.52,6.52,0,0,0-6.47,6.75l3.22,91.79a6.49,6.49,0,0,0,6.51,6.29H519.77a6.55,6.55,0,0,0,6.51-6.36l2.22-92.87a6.52,6.52,0,0,0-6.52-6.67Z" transform="translate(-65.3 -50.64)"/><path class="cls-14" d="M351.89,139.29H528.56l.28-4.84a7.42,7.42,0,0,0-7.46-7.85l-163.5,1.29a6.13,6.13,0,0,0-6.08,6.25Z" transform="translate(-65.3 -50.64)"/><polygon class="cls-15" points="295.48 96.06 295.48 149.18 349.56 149.18 349.56 95.78 295.48 96.06"/><rect class="cls-16" x="401.81" y="99.62" width="23.52" height="23.52"/><rect class="cls-17" x="429.57" y="99.62" width="23.52" height="23.52"/><rect class="cls-18" x="373.6" y="99.62" width="23.52" height="23.52"/><rect class="cls-19" x="392.94" y="136.86" width="60.15" height="5.63"/><rect class="cls-19" x="377.89" y="145.43" width="75.2" height="1.74"/><rect class="cls-19" x="378.6" y="126.14" width="14.39" height="1.74"/><rect class="cls-19" x="406.38" y="126.14" width="14.39" height="1.74"/><rect class="cls-19" x="434.14" y="126.14" width="14.39" height="1.74"/><rect class="cls-19" x="373.6" y="148.27" width="24.19" height="1.74"/><rect class="cls-19" x="377.89" y="151.07" width="75.2" height="1.74"/><rect class="cls-19" x="373.6" y="153.87" width="79.49" height="1.74"/><rect class="cls-19" x="373.6" y="156.67" width="79.49" height="1.74"/><rect class="cls-19" x="377.89" y="167.99" width="75.2" height="1.74"/><rect class="cls-19" x="373.6" y="170.79" width="79.49" height="1.74"/><rect class="cls-19" x="373.6" y="173.6" width="79.49" height="1.74"/><rect class="cls-19" x="373.6" y="159.47" width="76.3" height="1.74"/><rect class="cls-19" x="377.89" y="162.27" width="75.2" height="1.74"/><rect class="cls-19" x="373.6" y="165.07" width="64.41" height="1.74"/><g class="cls-20"><path class="cls-21" d="M375.93,189.17a15.39,15.39,0,1,1,15.38-15.39A15.4,15.4,0,0,1,375.93,189.17Zm0-29.77a14.39,14.39,0,1,0,14.38,14.38A14.4,14.4,0,0,0,375.93,159.4Z" transform="translate(-65.3 -50.64)"/></g><circle class="cls-11" cx="310.63" cy="123.14" r="8.36"/><g class="cls-20"><path class="cls-21" d="M414.85,161.8a15.39,15.39,0,1,1,15.39-15.38A15.4,15.4,0,0,1,414.85,161.8Zm0-29.77a14.39,14.39,0,1,0,14.39,14.39A14.4,14.4,0,0,0,414.85,132Z" transform="translate(-65.3 -50.64)"/></g><circle class="cls-11" cx="414.85" cy="146.42" r="7.87" transform="matrix(0.16, -0.99, 0.99, 0.16, 140.43, 482.83)"/><g class="cls-20"><polygon class="cls-11" points="292.79 81.44 293.91 79.74 299.99 85.06 299.06 86.36 292.79 81.44"/><polygon class="cls-11" points="300.15 81.44 299.02 79.74 292.94 85.06 293.88 86.36 300.15 81.44"/></g><rect class="cls-11" x="404.55" y="80.89" width="54.44" height="2.73"/><polygon class="cls-22" points="118.05 41.48 118.05 65.11 146.31 65.35 146.69 40.73 118.05 41.48"/><polygon class="cls-23" points="146.69 40.73 148.53 43.83 147.61 65.33 146.31 65.35 146.69 40.73"/><polygon class="cls-11" points="123.1 49.46 125.71 45.67 139.82 57.51 137.65 60.4 123.1 49.46"/><polygon class="cls-11" points="140.18 49.46 137.57 45.67 123.46 57.51 125.63 60.4 140.18 49.46"/><path class="cls-24" d="M249.27,370.18H152.58a7.93,7.93,0,0,1-7.92-7.74l-1.8-79.3a7.91,7.91,0,0,1,7.92-8.1H251.44a7.92,7.92,0,0,1,7.92,8.13l-2.17,79.31A7.92,7.92,0,0,1,249.27,370.18Z" transform="translate(-65.3 -50.64)"/><path class="cls-25" d="M249.27,370.43H152.58a8.22,8.22,0,0,1-8.17-8l-1.8-79.31a8.16,8.16,0,0,1,8.17-8.35H251.44a8.16,8.16,0,0,1,8.17,8.39l-2.17,79.31A8.13,8.13,0,0,1,249.27,370.43Zm-98.49-95.14a7.65,7.65,0,0,0-7.67,7.84l1.8,79.31a7.72,7.72,0,0,0,7.67,7.49h96.69a7.64,7.64,0,0,0,7.67-7.46l2.17-79.3a7.67,7.67,0,0,0-7.67-7.88Z" transform="translate(-65.3 -50.64)"/><rect class="cls-11" x="103.63" y="240.62" width="50.85" height="2.18"/><rect class="cls-11" x="103.63" y="245.91" width="25.42" height="2.18"/><rect class="cls-11" x="103.63" y="250.34" width="25.42" height="2.18"/><rect class="cls-11" x="131.9" y="250.34" width="20.23" height="2.18"/><rect class="cls-11" x="103.63" y="254.76" width="40.99" height="2.18"/><rect class="cls-11" x="103.63" y="259.18" width="14.59" height="2.18"/><rect class="cls-11" x="121.22" y="272.44" width="25.23" height="2.18"/><rect class="cls-11" x="103.63" y="263.6" width="45.73" height="2.18"/><rect class="cls-11" x="103.63" y="268.02" width="35.18" height="2.18"/><rect class="cls-11" x="103.63" y="272.44" width="16.55" height="2.18"/><rect class="cls-11" x="103.63" y="276.86" width="25.42" height="2.18"/><rect class="cls-11" x="103.63" y="281.28" width="7.29" height="2.18"/><rect class="cls-11" x="113.92" y="281.28" width="26.46" height="2.18"/><rect class="cls-11" x="121.22" y="285.57" width="25.23" height="2.18"/><rect class="cls-11" x="103.63" y="285.57" width="16.55" height="2.18"/><rect class="cls-11" x="103.63" y="289.99" width="25.42" height="2.18"/><rect class="cls-11" x="103.63" y="294.42" width="7.29" height="2.18"/><rect class="cls-11" x="113.92" y="294.42" width="26.46" height="2.18"/><path class="cls-26" d="M160.49,282.77h-48.8a7.28,7.28,0,0,1-7.27-7l-1.09-32.09a7.28,7.28,0,0,1,7.28-7.53h50.87a7.28,7.28,0,0,1,7.27,7.5l-1,32.1A7.28,7.28,0,0,1,160.49,282.77Z" transform="translate(-65.3 -50.64)"/><path class="cls-27" d="M160.49,283h-48.8a7.5,7.5,0,0,1-7.52-7.28l-1.09-32.09a7.55,7.55,0,0,1,7.53-7.79h50.87a7.53,7.53,0,0,1,7.52,7.76l-1,32.1A7.49,7.49,0,0,1,160.49,283Zm-49.88-46.66a7,7,0,0,0-7,7.27l1.09,32.09a7,7,0,0,0,7,6.8h48.8a7,7,0,0,0,7-6.82l1-32.09a7,7,0,0,0-7-7.25Z" transform="translate(-65.3 -50.64)"/><polygon class="cls-11" points="59.41 197 47.38 210.95 59.63 221.35 59.63 215.98 52.54 209.84 59.12 202.4 59.41 197"/><polygon class="cls-11" points="80.56 197.63 92.59 211.57 80.34 221.97 80.34 216.61 87.42 210.47 79.54 202.12 80.56 197.63"/><polygon class="cls-11" points="62.03 221.35 72.51 198.25 77.44 198.25 65.57 221.35 62.03 221.35"/><path class="cls-28" d="M488.82,348.82H427.77a9.1,9.1,0,0,1-9.1-8.8l-1.36-40.15a9.12,9.12,0,0,1,9.11-9.42h63.63a9.12,9.12,0,0,1,9.11,9.39L497.93,340A9.11,9.11,0,0,1,488.82,348.82Z" transform="translate(-65.3 -50.64)"/><path class="cls-27" d="M488.82,349.07H427.77a9.32,9.32,0,0,1-9.35-9l-1.36-40.15a9.36,9.36,0,0,1,9.36-9.68h63.63a9.36,9.36,0,0,1,9.36,9.64L498.18,340A9.33,9.33,0,0,1,488.82,349.07Zm-62.4-58.37a8.87,8.87,0,0,0-8.86,9.16L418.92,340a8.82,8.82,0,0,0,8.85,8.56h61.05a8.82,8.82,0,0,0,8.86-8.59l1.23-40.15a8.86,8.86,0,0,0-8.86-9.13Z" transform="translate(-65.3 -50.64)"/><rect class="cls-19" x="364.25" y="246.27" width="55.91" height="33.21"/><polygon class="cls-11" points="387.25 254.51 387.25 271.24 401.54 262.11 387.25 254.51"/><rect class="cls-19" x="364.25" y="285.6" width="55.91" height="3.04"/><rect class="cls-11" x="364.25" y="285.6" width="14.47" height="3.04"/><polygon class="cls-29" points="332.94 33.66 331.49 0 375.56 0 373.75 33.56 332.94 33.66"/><polygon class="cls-30" points="331.49 0 330.17 1.99 331.49 33.66 332.94 33.66 331.49 0"/><polygon class="cls-11" points="346.13 6.72 339.21 5.98 340.16 29.04 346.13 28.46 346.13 26.07 342.67 26.15 342.27 8.37 346.13 8.48 346.13 6.72"/><polygon class="cls-11" points="360.29 6.72 367.2 5.98 366.26 29.04 360.29 28.46 360.29 26.07 363.75 26.15 364.14 8.37 360.29 8.48 360.29 6.72"/><polygon class="cls-31" points="29.06 107.34 30.04 84.39 0 84.39 1.24 107.28 29.06 107.34"/><polygon class="cls-32" points="30.04 84.39 30.94 85.75 30.04 107.34 29.06 107.34 30.04 84.39"/><path class="cls-11" d="M83.77,139.65a20.7,20.7,0,0,1,3.87.14c.58.27-.15,5.64-.15,5.64l1.31,1.2-1.22,1.19s.06,5.44-.71,5.9-3.43,0-3.43,0v-1.36A7.63,7.63,0,0,0,86,152.2c.36-.29.33-5,.33-5l.58-.63-.58-.69s.1-3.39,0-4.32c0-.62-2.56-.65-2.56-.65Z" transform="translate(-65.3 -50.64)"/><path class="cls-11" d="M76.22,139.65a20.7,20.7,0,0,0-3.87.14c-.59.27.15,5.64.15,5.64l-1.32,1.2,1.23,1.19s-.06,5.44.71,5.9,3.42,0,3.42,0v-1.36A7.57,7.57,0,0,1,74,152.2c-.36-.29-.33-5-.33-5l-.58-.63.58-.69s-.11-3.39,0-4.32c0-.62,2.56-.65,2.56-.65Z" transform="translate(-65.3 -50.64)"/><path class="cls-13" d="M347.86,87.33,340.5,68.06l19.09,4Zm-6.57-18.59L348,86.32l10.7-13.94Z" transform="translate(-65.3 -50.64)"/><rect class="cls-13" x="398.19" y="355.71" width="10.94" height="0.5" transform="matrix(0.59, -0.81, 0.81, 0.59, -187.37, 420.44)"/><polygon class="cls-13" points="274.62 228.52 267.67 219.88 268.06 219.56 275.01 228.21 274.62 228.52"/><polygon class="cls-13" points="60.29 289.24 46.42 279.18 46.72 278.78 60.58 288.84 60.29 289.24"/><rect class="cls-13" x="110.23" y="334.4" width="17.13" height="0.5" transform="translate(-284.69 175.73) rotate(-52.7)"/><rect class="cls-13" x="98.59" y="184.72" width="0.5" height="10.14" transform="translate(-180.44 138.37) rotate(-62.28)"/><polygon class="cls-13" points="382.75 20.73 382.38 20.4 392.75 8.57 393.13 8.9 382.75 20.73"/><rect class="cls-13" x="248.43" y="99.55" width="0.5" height="10.41" transform="translate(-85.92 71.09) rotate(-26.45)"/><rect class="cls-13" x="171.13" y="261.73" width="15.54" height="0.5" transform="translate(-191.71 125.18) rotate(-39.91)"/></g></g></g></svg>